<svg id="visual" viewBox="0 0 900 600" width="900" height="600" xmlns="http://www.w3.org/2000/svg" xmlns:xlink="http://www.w3.org/1999/xlink" version="1.1"><rect x="0" y="0" width="900" height="600" fill="#001122"></rect><defs><linearGradient id="grad1_0" x1="33.3%" y1="0%" x2="100%" y2="100%"><stop offset="20%" stop-color="#001122" stop-opacity="1"></stop><stop offset="80%" stop-color="#001122" stop-opacity="1"></stop></linearGradient></defs><defs><linearGradient id="grad2_0" x1="0%" y1="0%" x2="66.7%" y2="100%"><stop offset="20%" stop-color="#001122" stop-opacity="1"></stop><stop offset="80%" stop-color="#001122" stop-opacity="1"></stop></linearGradient></defs><g transform="translate(900, 0)"><path d="M0 324.5C-59.6 317.6 -119.1 310.8 -162.2 281C-205.4 251.3 -232 198.7 -256.3 148C-280.6 97.3 -302.6 48.7 -324.5 0L0 0Z" fill="#00f407"></path></g><g transform="translate(0, 600)"><path d="M0 -324.5C48.9 -303 97.9 -281.6 148.5 -257.2C199.1 -232.9 251.4 -205.6 281 -162.2C310.6 -118.9 317.6 -59.4 324.5 0L0 0Z" fill="#00f407"></path></g></svg>