<!-- <svg id="visual" viewBox="0 0 900 600" width="900" height="600" xmlns="http://www.w3.org/2000/svg" xmlns:xlink="http://www.w3.org/1999/xlink" version="1.1"><rect x="0" y="0" width="900" height="600" fill="#FFFFFF"></rect><defs><linearGradient id="grad1_0" x1="33.3%" y1="0%" x2="100%" y2="100%"><stop offset="20%" stop-color="#ffffff" stop-opacity="1"></stop><stop offset="80%" stop-color="#ffffff" stop-opacity="1"></stop></linearGradient></defs><defs><linearGradient id="grad2_0" x1="0%" y1="0%" x2="66.7%" y2="100%"><stop offset="20%" stop-color="#ffffff" stop-opacity="1"></stop><stop offset="80%" stop-color="#ffffff" stop-opacity="1"></stop></linearGradient></defs><g transform="translate(900, 0)"><path d="M0 486.7C-45.1 432.7 -90.3 378.7 -149.2 360.3C-208.2 341.9 -281 359.1 -335.9 335.9C-390.7 312.6 -427.6 249 -449.7 186.3C-471.8 123.6 -479.3 61.8 -486.7 0L0 0Z" fill="#0066FF"></path></g><g transform="translate(0, 600)"><path d="M0 -486.7C70.6 -486.7 141.2 -486.6 186.3 -449.7C231.4 -412.8 251 -339.1 291.3 -291.3C331.6 -243.6 392.7 -221.8 428.7 -177.6C464.7 -133.3 475.7 -66.7 486.7 0L0 0Z" fill="#0066FF"></path></g></svg> -->
<svg xmlns="http://www.w3.org/2000/svg" viewBox="0 0 1311 643" preserveAspectRatio="xMidYMid" style="shape-rendering: auto; display: block; background: rgb(1, 44, 50);" width="1311" height="643"><g data-idx="1" style="fill: rgb(0, 0, 0); stroke: none; transform: none; opacity: 1;"><path stroke-width="0" fill="#0f3135" d="M -100 379.965 C -75.3439 376.879 -75.3646 379.109 -51.26 379.109 S -26.4969 379.931 -2.52 379.931 S 23.147 377.44 46.23 377.44 S 70.783 376.412 94.97 376.412 S 119.48 377.586 143.71 377.586 S 169.227 381.768 192.45 381.768 S 217.237 386.374 241.19 386.374 S 266.046 377.914 289.94 377.914 S 314.76 383.665 338.68 383.665 S 364.549 379.244 387.42 379.244 S 412.465 376.886 436.16 376.886 S 461.127 376.192 484.9 376.192 S 509.332 387.352 533.65 387.352 S 559.478 379.939 582.39 379.939 S 607.836 376.26 631.13 376.26 S 655.576 380.176 679.87 380.176 S 705.174 378.06 728.61 378.06 S 754.079 378.005 777.35 378.005 S 801.992 382.258 826.1 382.258 S 851.958 377.223 874.84 377.223 S 900.409 381.574 923.58 381.574 S 948.407 385.528 972.32 385.528 S 997.558 378.144 1021.06 378.144 S 1045.74 383.049 1069.81 383.049 S 1094.62 374.632 1118.55 374.632 S 1144.07 383.929 1167.29 383.929 S 1193.04 378.167 1216.03 378.167 S 1241.08 380.559 1264.77 380.559 S 1290.5 378.654 1313.52 378.654 S 1338.46 381.033 1362.26 381.033 S 1387.78 381.16 1411 381.16 S 1435.53 385.316 1459.74 385.316 L 1411 643 L -100 643 Z" data-idx="2" transform="matrix(1,0,0,1,0.19594788551330566,0)" style="stroke: none; opacity: 1;">
  
  
</path><path stroke-width="0" fill="#254346" d="M -100 399.873 C -74.1532 399.941 -74.2178 405.41 -49.97 405.41 S -24.4169 402.18 0.07 402.18 S 25.6278 402.038 50.1 402.038 S 76.1685 401.042 100.13 401.042 S 125.532 397.063 150.17 397.063 S 175.635 400.994 200.2 400.994 S 226.565 397.741 250.23 397.741 S 276.192 402.289 300.26 402.289 S 326.284 398.633 350.3 398.633 S 376.104 396.582 400.33 396.582 S 426.684 407.555 450.36 407.555 S 475.804 396.065 500.4 396.065 S 526.439 397.018 550.43 397.018 S 576.044 398.791 600.46 398.791 S 626.107 399.952 650.5 399.952 S 676.925 404.295 700.53 404.295 S 726.537 400.587 750.56 400.587 S 776.686 393.985 800.6 393.985 S 826.703 400.087 850.63 400.087 S 876.73 390.674 900.66 390.674 S 926.13 399.602 950.7 399.602 S 976.961 395.721 1000.73 395.721 S 1026.74 394.438 1050.76 394.438 S 1076.41 395.854 1100.79 395.854 S 1126.43 396.044 1150.83 396.044 S 1176.42 396.683 1200.86 396.683 S 1226.37 397.734 1250.89 397.734 S 1276.36 401.355 1300.93 401.355 S 1326.87 403.078 1350.96 403.078 S 1376.9 397.167 1400.99 397.167 S 1427.02 403.037 1451.03 403.037 L 1411 643 L -100 643 Z" data-idx="5" transform="matrix(1,0,0,1,5.1079301834106445,0)" style="stroke: none; opacity: 1;">
  
  
</path><path stroke-width="0" fill="#3b5658" d="M -100 414.481 C -72.9448 407.532 -74.1444 419.586 -48.61 419.586 S -22.4144 418.17 2.79 418.17 S 30.0396 411.717 54.18 411.717 S 80.8746 412.499 105.58 412.499 S 132.208 410.136 156.97 410.136 S 183.639 409.63 208.37 409.63 S 235.404 425.476 259.76 425.476 S 286.115 408.097 311.16 408.097 S 336.972 414.082 362.55 414.082 S 389.691 413.337 413.95 413.337 S 441.136 420.799 465.34 420.799 S 491.608 416.522 516.73 416.522 S 543.395 420.417 568.13 420.417 S 594.243 410.466 619.52 410.466 S 646.315 414.285 670.92 414.285 S 697.219 415.058 722.31 415.058 S 749.059 416.24 773.71 416.24 S 800.022 419.031 825.1 419.031 S 851.141 417.55 876.5 417.55 S 902.874 417.569 927.89 417.569 S 954.268 419.234 979.29 419.234 S 1005.45 407.098 1030.68 407.098 S 1057.24 412.332 1082.07 412.332 S 1109.2 419.084 1133.47 419.084 S 1160.35 422.847 1184.86 422.847 S 1211.33 415.842 1236.26 415.842 S 1263.15 414.808 1287.65 414.808 S 1314.39 410.743 1339.05 410.743 S 1365.59 418.167 1390.44 418.167 S 1416.56 417.616 1441.84 417.616 L 1411 643 L -100 643 Z" data-idx="8" transform="matrix(1,0,0,1,9.999410629272461,0)" style="stroke: none; opacity: 1;">
  
  
</path><path stroke-width="0" fill="#51696b" d="M -100 429.995 C -72.1928 425.757 -72.7687 439.902 -47.17 439.902 S -19.7406 425.356 5.66 425.356 S 32.5597 441.224 58.5 441.224 S 85.9901 425.469 111.33 425.469 S 138.466 444.786 164.16 444.786 S 191.602 422.204 216.99 422.204 S 244.454 432.493 269.83 432.493 S 297.19 431.653 322.66 431.653 S 350.292 441.313 375.49 441.313 S 403.185 423.293 428.32 423.293 S 455.987 434.799 481.15 434.799 S 508.002 421.753 533.99 421.753 S 561.1 438.202 586.82 438.202 S 613.729 426.214 639.65 426.214 S 667.013 440.12 692.48 440.12 S 719.485 433.092 745.31 433.092 S 772.345 439.78 798.15 439.78 S 825.039 433.967 850.98 433.967 S 878.864 439.871 903.81 439.871 S 930.421 430.23 956.64 430.23 S 983.183 438.533 1009.48 438.533 S 1035.93 433.049 1062.31 433.049 S 1089.51 446.41 1115.14 446.41 S 1142.67 427.659 1167.97 427.659 S 1195.4 442.016 1220.8 442.016 S 1247.42 434.849 1273.64 434.849 S 1301.48 433.734 1326.47 433.734 S 1353.58 423.6 1379.3 423.6 S 1406.76 436.233 1432.13 436.233 L 1411 643 L -100 643 Z" data-idx="11" transform="matrix(1,0,0,1,4.049333572387695,0)" style="stroke: none; opacity: 1;">
  
  
</path><path stroke-width="0" fill="#677d7f" d="M -100 446.089 C -71.9124 446.829 -71.8662 457.874 -45.65 457.874 S -17.0753 438.671 8.71 438.671 S 36.957 458.617 63.06 458.617 S 91.4746 440.15 117.41 440.15 S 145.224 452.692 171.76 452.692 S 199.797 448.863 226.12 448.863 S 254.241 455.244 280.47 455.244 S 308.489 445.05 334.82 445.05 S 362.638 451.244 389.17 451.244 S 417.466 443.303 443.53 443.303 S 471.487 450.006 497.88 450.006 S 525.347 448.677 552.23 448.677 S 580.67 461.751 606.58 461.751 S 634.407 444.404 660.94 444.404 S 688.475 455.163 715.29 455.163 S 743.673 447.398 769.64 447.398 S 796.939 461.283 823.99 461.283 S 852.569 451.203 878.35 451.203 S 905.791 461.979 932.7 461.979 S 960.889 442.388 987.05 442.388 S 1015.31 457.601 1041.4 457.601 S 1068.81 450.103 1095.76 450.103 S 1123.05 460.274 1150.11 460.274 S 1178.35 455.51 1204.46 455.51 S 1232.56 459.657 1258.81 459.657 S 1286.82 447.852 1313.17 447.852 S 1340.86 455.829 1367.52 455.829 S 1395.04 452.349 1421.87 452.349 L 1411 643 L -100 643 Z" data-idx="14" transform="matrix(1,0,0,1,1.797986626625061,0)" style="stroke: none; opacity: 1;">
  
  
</path><path stroke-width="0" fill="#7e9193" d="M -100 462.277 C -71.8647 463.689 -71.31 472.961 -44.04 472.961 S -14.6214 463.996 11.93 463.996 S 40.4183 480.447 67.89 480.447 S 96.6083 458.822 123.85 458.822 S 151.951 476.489 179.81 476.489 S 208.627 454.219 235.78 454.219 S 264.148 477.212 291.74 477.212 S 319.939 455.715 347.7 455.715 S 375.958 472.808 403.67 472.808 S 433.113 481.16 459.63 481.16 S 488.527 484.969 515.59 484.969 S 544.838 453.673 571.56 453.673 S 600.39 466.173 627.52 466.173 S 656.533 467.115 683.48 467.115 S 712.693 476.781 739.44 476.781 S 767.751 466.261 795.41 466.261 S 824.283 481.793 851.37 481.793 S 880.789 458.718 907.33 458.718 S 936.148 482.936 963.3 482.936 S 991.883 456.941 1019.26 456.941 S 1047.7 472.495 1075.22 472.495 S 1103.59 459.909 1131.19 459.909 S 1160.58 468.992 1187.15 468.992 S 1216.27 464.495 1243.11 464.495 S 1272.08 472.897 1299.07 472.897 S 1327.76 481.313 1355.04 481.313 S 1383.52 482.972 1411 482.972 S 1439.05 463.882 1466.96 463.882 L 1411 643 L -100 643 Z" data-idx="17" transform="matrix(1,0,0,1,9.29124927520752,0)" style="stroke: none; opacity: 1;">
  
  
</path><path stroke-width="0" fill="#95a6a7" d="M -100 500.969 C -70.152 501.644 -70.9092 493.292 -42.33 493.292 S -12.8558 472.408 15.34 472.408 S 45.0728 492.023 73.02 492.023 S 102.526 473.889 130.69 473.889 S 160.078 494.354 188.36 494.354 S 218.165 496.072 246.03 496.072 S 275.777 501.196 303.7 501.196 S 333.147 477.448 361.37 477.448 S 391.385 497.505 419.05 497.505 S 448.069 474.48 476.72 474.48 S 506.442 494.451 534.39 494.451 S 563.868 475.441 592.06 475.441 S 621.856 494.593 649.73 494.593 S 679.337 499.361 707.4 499.361 S 736.38 493.697 765.08 493.697 S 794.876 480.034 822.75 480.034 S 851.824 481.262 880.42 481.262 S 909.879 473.24 938.09 473.24 S 967.178 494.069 995.76 494.069 S 1024.8 482.613 1053.44 482.613 S 1083.5 492.911 1111.11 492.911 S 1140.48 480.94 1168.78 480.94 S 1199 496.014 1226.45 496.014 S 1255.78 479.668 1284.12 479.668 S 1313.9 496.332 1341.79 496.332 S 1370.82 474.355 1399.47 474.355 S 1429.14 491.352 1457.14 491.352 L 1411 643 L -100 643 Z" data-idx="20" transform="matrix(1,0,0,1,3.4759111404418945,0)" style="stroke: none; opacity: 1;">
  
  
</path><path stroke-width="0" fill="#adbcbc" d="M -100 495.973 C -69.267 493.296 -69.0565 509.569 -40.51 509.569 S -10.555 516.116 18.98 516.116 S 50.1752 498.606 78.46 498.606 S 108.365 496.279 137.95 496.279 S 168.426 517.973 197.44 517.973 S 228.585 500.436 256.93 500.436 S 287.065 517.558 316.42 517.558 S 346.594 495.119 375.91 495.119 S 406.271 523.691 435.39 523.691 S 465.763 515.354 494.88 515.354 S 525.726 499.481 554.37 499.481 S 584.735 513.591 613.86 513.591 S 644.441 509.18 673.35 509.18 S 704.515 487.981 732.83 487.981 S 763.265 513.268 792.32 513.268 S 822.269 494.736 851.81 494.736 S 881.828 519.474 911.3 519.474 S 941.695 499.054 970.79 499.054 S 1001.77 520.04 1030.28 520.04 S 1060.72 500.462 1089.76 500.462 S 1120.37 522.067 1149.25 522.067 S 1179.5 495.428 1208.74 495.428 S 1238.77 513.459 1268.23 513.459 S 1298.87 498.579 1327.72 498.579 S 1358.95 517.625 1387.2 517.625 S 1418.28 495 1446.69 495 L 1411 643 L -100 643 Z" data-idx="23" transform="matrix(1,0,0,1,2.5506248474121094,0)" style="stroke: none; opacity: 1;">
  
  
</path><path stroke-width="0" fill="#c6d2d2" d="M -100 509.442 C -68.34 506.65 -68.2466 537.169 -38.58 537.169 S -7.06776 505.785 22.85 505.785 S 54.2606 538.733 84.27 538.733 S 116.394 507.383 145.69 507.383 S 177.353 529.788 207.11 529.788 S 238.533 507.282 268.54 507.282 S 299.969 534.006 329.96 534.006 S 361.718 508.026 391.38 508.026 S 423.543 535.01 452.8 535.01 S 484.083 506.214 514.23 506.214 S 546.287 533.054 575.65 533.054 S 606.812 527.751 637.07 527.751 S 668.728 540.423 698.5 540.423 S 729.963 502.405 759.92 502.405 S 791.169 529.684 821.34 529.684 S 853.445 511.728 882.76 511.728 S 914.064 526.615 944.19 526.615 S 975.497 510.929 1005.61 510.929 S 1037.19 533.641 1067.03 533.641 S 1098.68 506.479 1128.46 506.479 S 1159.64 536.698 1189.88 536.698 S 1222.07 506.471 1251.3 506.471 S 1282.5 538.252 1312.72 538.252 S 1343.84 506.982 1374.15 506.982 S 1405.95 524.801 1435.57 524.801 L 1411 643 L -100 643 Z" data-idx="26" transform="matrix(1,0,0,1,0.00926159881055355,0)" style="stroke: none; opacity: 1;">
  
  
</path><path stroke-width="0" fill="#dfe8e8" d="M -100 535.877 C -67.9174 529.597 -66.708 558.534 -36.51 558.534 S -4.48008 530.797 26.97 530.797 S 60.2268 550.608 90.46 550.608 S 122.486 527.565 153.95 527.565 S 186.518 557.27 217.44 557.27 S 249.742 534.255 280.92 534.255 S 313.725 552.162 344.41 552.162 S 377.272 529.069 407.9 529.069 S 440.262 553.003 471.39 553.003 S 504.43 532.514 534.87 532.514 S 567.755 558.146 598.36 558.146 S 631.223 544.242 661.85 544.242 S 693.754 554.559 725.34 554.559 S 758.03 527.556 788.82 527.556 S 821.238 554.169 852.31 554.169 S 884.525 522.625 915.8 522.625 S 948.35 556.648 979.29 556.648 S 1011.97 527.139 1042.77 527.139 S 1075.21 552.999 1106.26 552.999 S 1138.89 546.368 1169.75 546.368 S 1202.15 561.669 1233.24 561.669 S 1265.44 525.904 1296.72 525.904 S 1329.39 551.235 1360.21 551.235 S 1392.36 524.682 1423.7 524.682 L 1411 643 L -100 643 Z" data-idx="29" transform="matrix(1,0,0,1,5.966761112213135,0)" style="stroke: none; opacity: 1;">
  
  
</path><g data-idx="32" style="fill: rgb(0, 0, 0); stroke: none; transform: none; opacity: 1;"></g></g></svg>