<!-- <svg xmlns="http://www.w3.org/2000/svg" version="1.1" xmlns:xlink="http://www.w3.org/1999/xlink" xmlns:svgjs="http://svgjs.dev/svgjs" width="1440" height="560" preserveAspectRatio="none" viewBox="0 0 1440 560"><g mask="url(&quot;#SvgjsMask1008&quot;)" fill="none"><rect width="1440" height="560" x="0" y="0" fill="rgba(255, 255, 255, 1)"></rect><path d="M1464 560L0 560 L0 280.42Q108.13 268.55, 120 376.67Q139.91 276.58, 240 296.49Q307.41 243.9, 360 311.32Q449.09 280.41, 480 369.5Q498.75 316.25, 552 335.01Q572.23 283.24, 624 303.47Q678.57 238.04, 744 292.6Q826.18 254.79, 864 336.97Q909.46 310.43, 936 355.89Q982.9 330.79, 1008 377.7Q1026.03 323.73, 1080 341.76Q1145.91 287.67, 1200 353.58Q1207.07 288.64, 1272 295.71Q1302.06 253.76, 1344 283.82Q1438.87 258.69, 1464 353.56z" fill="rgba(0, 88, 159, 1)"></path><path d="M1464 560L0 560 L0 397Q64.79 341.79, 120 406.59Q166.53 333.12, 240 379.65Q288.36 308.01, 360 356.37Q420.54 344.91, 432 405.45Q485.71 339.16, 552 392.87Q601.83 370.7, 624 420.53Q675.96 352.49, 744 404.44Q787.83 328.26, 864 372.09Q921.51 357.6, 936 415.1Q957.6 364.7, 1008 386.3Q1052.96 311.26, 1128 356.23Q1184.82 341.05, 1200 397.86Q1248.77 374.63, 1272 423.4Q1343.99 375.39, 1392 447.39Q1402.05 385.44, 1464 395.48z" fill="rgba(50, 152, 235, 1)"></path><path d="M1512 560L0 560 L0 477.38Q50.65 456.03, 72 506.68Q84.44 447.12, 144 459.55Q170.19 413.74, 216 439.93Q273.2 425.13, 288 482.34Q338.72 461.06, 360 511.78Q387.46 467.24, 432 494.69Q481.59 424.28, 552 473.87Q594.91 396.78, 672 439.7Q756.72 404.42, 792 489.14Q818.28 443.42, 864 469.7Q894.04 427.74, 936 457.77Q998.26 448.03, 1008 510.29Q1060.25 442.54, 1128 494.79Q1173.97 420.76, 1248 466.73Q1261.41 408.14, 1320 421.55Q1385.43 366.98, 1440 432.41Q1498.95 419.37, 1512 478.32z" fill="rgba(79, 172, 247, 1)"></path><path d="M1488 560L0 560 L0 539.75Q47.89 515.64, 72 563.54Q97.23 468.77, 192 494Q259.18 441.18, 312 508.36Q382.5 458.86, 432 529.35Q504.39 481.75, 552 554.14Q595.52 525.66, 624 569.19Q657.41 482.61, 744 516.02Q788.46 488.48, 816 532.94Q860.53 505.48, 888 550.01Q932.76 474.77, 1008 519.54Q1055.07 446.61, 1128 493.68Q1222.79 468.47, 1248 563.25Q1313.17 508.42, 1368 573.6Q1406.87 492.47, 1488 531.33z" fill="white"></path></g><defs><mask id="SvgjsMask1008"><rect width="1440" height="560" fill="#ffffff"></rect></mask></defs></svg> -->
<svg xmlns="http://www.w3.org/2000/svg" viewBox="0 0 1024 482.25" preserveAspectRatio="xMidYMid" style="shape-rendering: auto; display: block; background: rgb(255, 255, 255);" width="1024" height="482.25"><g data-idx="1" style="fill: rgb(0, 0, 0); stroke: none; transform: none; opacity: 1;"><g data-idx="2" transform="matrix(1,0,0,1,0,-2.29321026802063)" style="fill: rgb(0, 0, 0); stroke: none; opacity: 1;"><path fill="#00ffff" d="M-170.67 -162.13A85.33 85.33 0 0 1 0 -162.13A85.33 85.33 0 0 1 170.67 -162.13A85.33 85.33 0 0 1 341.33 -162.13A85.33 85.33 0 0 1 512 -162.13A85.33 85.33 0 0 1 682.67 -162.13A85.33 85.33 0 0 1 853.33 -162.13A85.33 85.33 0 0 1 1024 -162.13A85.33 85.33 0 0 1 1194.67 -162.13L-170.67 -162.13" data-idx="3" transform="matrix(1,0,0,1,-48.01970291137695,0)" style="stroke: none; opacity: 1;">

</path>

</g><g data-idx="6" transform="matrix(1,0,0,1,0,-8.459564208984375)" style="fill: rgb(0, 0, 0); stroke: none; opacity: 1;"><path fill="#01f3f4" d="M-85.33 -128A85.33 85.33 0 0 1 85.33 -128A85.33 85.33 0 0 1 256 -128A85.33 85.33 0 0 1 426.67 -128A85.33 85.33 0 0 1 597.33 -128A85.33 85.33 0 0 1 768 -128A85.33 85.33 0 0 1 938.67 -128A85.33 85.33 0 0 1 1109.33 -128A85.33 85.33 0 0 1 1280 -128L-85.33 -128" data-idx="7" transform="matrix(1,0,0,1,-26.17923355102539,0)" style="stroke: none; opacity: 1;">

</path>

</g><g data-idx="10" transform="matrix(1,0,0,1,0,-4.8245158195495605)" style="fill: rgb(0, 0, 0); stroke: none; opacity: 1;"><path fill="#02e7e9" d="M-170.67 -93.87A85.33 85.33 0 0 1 0 -93.87A85.33 85.33 0 0 1 170.67 -93.87A85.33 85.33 0 0 1 341.33 -93.87A85.33 85.33 0 0 1 512 -93.87A85.33 85.33 0 0 1 682.67 -93.87A85.33 85.33 0 0 1 853.33 -93.87A85.33 85.33 0 0 1 1024 -93.87A85.33 85.33 0 0 1 1194.67 -93.87L-170.67 -93.87" data-idx="11" transform="matrix(1,0,0,1,-8.066376686096191,0)" style="stroke: none; opacity: 1;">

</path>

</g><g data-idx="14" transform="matrix(1,0,0,1,0,0.0020063864067196846)" style="fill: rgb(0, 0, 0); stroke: none; opacity: 1;"><path fill="#03dcde" d="M-85.33 -59.73A85.33 85.33 0 0 1 85.33 -59.73A85.33 85.33 0 0 1 256 -59.73A85.33 85.33 0 0 1 426.67 -59.73A85.33 85.33 0 0 1 597.33 -59.73A85.33 85.33 0 0 1 768 -59.73A85.33 85.33 0 0 1 938.67 -59.73A85.33 85.33 0 0 1 1109.33 -59.73A85.33 85.33 0 0 1 1280 -59.73L-85.33 -59.73" data-idx="15" transform="matrix(1,0,0,1,0.0008071728516370058,0)" style="stroke: none; opacity: 1;">

</path>

</g><g data-idx="18" transform="matrix(1,0,0,1,0,5.2420220375061035)" style="fill: rgb(0, 0, 0); stroke: none; opacity: 1;"><path fill="#05d0d3" d="M-170.67 -25.60A85.33 85.33 0 0 1 0 -25.60A85.33 85.33 0 0 1 170.67 -25.60A85.33 85.33 0 0 1 341.33 -25.60A85.33 85.33 0 0 1 512 -25.60A85.33 85.33 0 0 1 682.67 -25.60A85.33 85.33 0 0 1 853.33 -25.60A85.33 85.33 0 0 1 1024 -25.60A85.33 85.33 0 0 1 1194.67 -25.60L-170.67 -25.60" data-idx="19" transform="matrix(1,0,0,1,8.289804458618164,0)" style="stroke: none; opacity: 1;">

</path>

</g><g data-idx="22" transform="matrix(1,0,0,1,0,8.397560119628906)" style="fill: rgb(0, 0, 0); stroke: none; opacity: 1;"><path fill="#06c4c8" d="M-85.33 8.53A85.33 85.33 0 0 1 85.33 8.53A85.33 85.33 0 0 1 256 8.53A85.33 85.33 0 0 1 426.67 8.53A85.33 85.33 0 0 1 597.33 8.53A85.33 85.33 0 0 1 768 8.53A85.33 85.33 0 0 1 938.67 8.53A85.33 85.33 0 0 1 1109.33 8.53A85.33 85.33 0 0 1 1280 8.53L-85.33 8.53" data-idx="23" transform="matrix(1,0,0,1,26.546388626098633,0)" style="stroke: none; opacity: 1;">

</path>

</g><g data-idx="26" transform="matrix(1,0,0,1,0,1.9567593336105347)" style="fill: rgb(0, 0, 0); stroke: none; opacity: 1;"><path fill="#07b8bd" d="M-170.67 42.67A85.33 85.33 0 0 1 0 42.67A85.33 85.33 0 0 1 170.67 42.67A85.33 85.33 0 0 1 341.33 42.67A85.33 85.33 0 0 1 512 42.67A85.33 85.33 0 0 1 682.67 42.67A85.33 85.33 0 0 1 853.33 42.67A85.33 85.33 0 0 1 1024 42.67A85.33 85.33 0 0 1 1194.67 42.67L-170.67 42.67" data-idx="27" transform="matrix(1,0,0,1,48.35884475708008,0)" style="stroke: none; opacity: 1;">

</path>

</g><g data-idx="30" transform="matrix(1,0,0,1,0,-0.5207075476646423)" style="fill: rgb(0, 0, 0); stroke: none; opacity: 1;"><path fill="#08acb2" d="M-85.33 76.80A85.33 85.33 0 0 1 85.33 76.80A85.33 85.33 0 0 1 256 76.80A85.33 85.33 0 0 1 426.67 76.80A85.33 85.33 0 0 1 597.33 76.80A85.33 85.33 0 0 1 768 76.80A85.33 85.33 0 0 1 938.67 76.80A85.33 85.33 0 0 1 1109.33 76.80A85.33 85.33 0 0 1 1280 76.80L-85.33 76.80" data-idx="31" transform="matrix(1,0,0,1,69.00228881835938,0)" style="stroke: none; opacity: 1;">

</path>

</g><g data-idx="34" transform="matrix(1,0,0,1,0,-7.545261859893799)" style="fill: rgb(0, 0, 0); stroke: none; opacity: 1;"><path fill="#09a1a7" d="M-170.67 110.93A85.33 85.33 0 0 1 0 110.93A85.33 85.33 0 0 1 170.67 110.93A85.33 85.33 0 0 1 341.33 110.93A85.33 85.33 0 0 1 512 110.93A85.33 85.33 0 0 1 682.67 110.93A85.33 85.33 0 0 1 853.33 110.93A85.33 85.33 0 0 1 1024 110.93A85.33 85.33 0 0 1 1194.67 110.93L-170.67 110.93" data-idx="35" transform="matrix(1,0,0,1,83.09638214111328,0)" style="stroke: none; opacity: 1;">

</path>

</g><g data-idx="38" transform="matrix(1,0,0,1,0,-7.309309005737305)" style="fill: rgb(0, 0, 0); stroke: none; opacity: 1;"><path fill="#0a959c" d="M-85.33 145.07A85.33 85.33 0 0 1 85.33 145.07A85.33 85.33 0 0 1 256 145.07A85.33 85.33 0 0 1 426.67 145.07A85.33 85.33 0 0 1 597.33 145.07A85.33 85.33 0 0 1 768 145.07A85.33 85.33 0 0 1 938.67 145.07A85.33 85.33 0 0 1 1109.33 145.07A85.33 85.33 0 0 1 1280 145.07L-85.33 145.07" data-idx="39" transform="matrix(1,0,0,1,82.96328735351562,0)" style="stroke: none; opacity: 1;">

</path>

</g><g data-idx="42" transform="matrix(1,0,0,1,0,-0.38214853405952454)" style="fill: rgb(0, 0, 0); stroke: none; opacity: 1;"><path fill="#0b8991" d="M-170.67 179.20A85.33 85.33 0 0 1 0 179.20A85.33 85.33 0 0 1 170.67 179.20A85.33 85.33 0 0 1 341.33 179.20A85.33 85.33 0 0 1 512 179.20A85.33 85.33 0 0 1 682.67 179.20A85.33 85.33 0 0 1 853.33 179.20A85.33 85.33 0 0 1 1024 179.20A85.33 85.33 0 0 1 1194.67 179.20L-170.67 179.20" data-idx="43" transform="matrix(1,0,0,1,68.71842956542969,0)" style="stroke: none; opacity: 1;">

</path>

</g><g data-idx="46" transform="matrix(1,0,0,1,0,2.301565408706665)" style="fill: rgb(0, 0, 0); stroke: none; opacity: 1;"><path fill="#0d7d86" d="M-85.33 213.33A85.33 85.33 0 0 1 85.33 213.33A85.33 85.33 0 0 1 256 213.33A85.33 85.33 0 0 1 426.67 213.33A85.33 85.33 0 0 1 597.33 213.33A85.33 85.33 0 0 1 768 213.33A85.33 85.33 0 0 1 938.67 213.33A85.33 85.33 0 0 1 1109.33 213.33A85.33 85.33 0 0 1 1280 213.33L-85.33 213.33" data-idx="47" transform="matrix(1,0,0,1,48.01970291137695,0)" style="stroke: none; opacity: 1;">

</path>

</g><g data-idx="50" transform="matrix(1,0,0,1,0,8.460740089416504)" style="fill: rgb(0, 0, 0); stroke: none; opacity: 1;"><path fill="#0e717b" d="M-170.67 247.47A85.33 85.33 0 0 1 0 247.47A85.33 85.33 0 0 1 170.67 247.47A85.33 85.33 0 0 1 341.33 247.47A85.33 85.33 0 0 1 512 247.47A85.33 85.33 0 0 1 682.67 247.47A85.33 85.33 0 0 1 853.33 247.47A85.33 85.33 0 0 1 1024 247.47A85.33 85.33 0 0 1 1194.67 247.47L-170.67 247.47" data-idx="51" transform="matrix(1,0,0,1,26.17923355102539,0)" style="stroke: none; opacity: 1;">

</path>

</g><g data-idx="54" transform="matrix(1,0,0,1,0,4.814427375793457)" style="fill: rgb(0, 0, 0); stroke: none; opacity: 1;"><path fill="#0f6570" d="M-85.33 281.60A85.33 85.33 0 0 1 85.33 281.60A85.33 85.33 0 0 1 256 281.60A85.33 85.33 0 0 1 426.67 281.60A85.33 85.33 0 0 1 597.33 281.60A85.33 85.33 0 0 1 768 281.60A85.33 85.33 0 0 1 938.67 281.60A85.33 85.33 0 0 1 1109.33 281.60A85.33 85.33 0 0 1 1280 281.60L-85.33 281.60" data-idx="55" transform="matrix(1,0,0,1,8.066376686096191,0)" style="stroke: none; opacity: 1;">

</path>

</g><g data-idx="58" transform="matrix(1,0,0,1,0,-0.0021941126324236393)" style="fill: rgb(0, 0, 0); stroke: none; opacity: 1;"><path fill="#105a65" d="M-170.67 315.73A85.33 85.33 0 0 1 0 315.73A85.33 85.33 0 0 1 170.67 315.73A85.33 85.33 0 0 1 341.33 315.73A85.33 85.33 0 0 1 512 315.73A85.33 85.33 0 0 1 682.67 315.73A85.33 85.33 0 0 1 853.33 315.73A85.33 85.33 0 0 1 1024 315.73A85.33 85.33 0 0 1 1194.67 315.73L-170.67 315.73" data-idx="59" transform="matrix(1,0,0,1,-0.0008071728516370058,0)" style="stroke: none; opacity: 1;">

</path>

</g><g data-idx="62" transform="matrix(1,0,0,1,0,-5.251786231994629)" style="fill: rgb(0, 0, 0); stroke: none; opacity: 1;"><path fill="#114e5a" d="M-85.33 349.87A85.33 85.33 0 0 1 85.33 349.87A85.33 85.33 0 0 1 256 349.87A85.33 85.33 0 0 1 426.67 349.87A85.33 85.33 0 0 1 597.33 349.87A85.33 85.33 0 0 1 768 349.87A85.33 85.33 0 0 1 938.67 349.87A85.33 85.33 0 0 1 1109.33 349.87A85.33 85.33 0 0 1 1280 349.87L-85.33 349.87" data-idx="63" transform="matrix(1,0,0,1,-8.289804458618164,0)" style="stroke: none; opacity: 1;">

</path>

</g><g data-idx="66" transform="matrix(1,0,0,1,0,-8.39591121673584)" style="fill: rgb(0, 0, 0); stroke: none; opacity: 1;"><path fill="#12424f" d="M-170.67 384A85.33 85.33 0 0 1 0 384A85.33 85.33 0 0 1 170.67 384A85.33 85.33 0 0 1 341.33 384A85.33 85.33 0 0 1 512 384A85.33 85.33 0 0 1 682.67 384A85.33 85.33 0 0 1 853.33 384A85.33 85.33 0 0 1 1024 384A85.33 85.33 0 0 1 1194.67 384L-170.67 384" data-idx="67" transform="matrix(1,0,0,1,-26.546388626098633,0)" style="stroke: none; opacity: 1;">

</path>

</g><g data-idx="70" transform="matrix(1,0,0,1,0,-1.9491000175476074)" style="fill: rgb(0, 0, 0); stroke: none; opacity: 1;"><path fill="#133644" d="M-85.33 418.13A85.33 85.33 0 0 1 85.33 418.13A85.33 85.33 0 0 1 256 418.13A85.33 85.33 0 0 1 426.67 418.13A85.33 85.33 0 0 1 597.33 418.13A85.33 85.33 0 0 1 768 418.13A85.33 85.33 0 0 1 938.67 418.13A85.33 85.33 0 0 1 1109.33 418.13A85.33 85.33 0 0 1 1280 418.13L-85.33 418.13" data-idx="71" transform="matrix(1,0,0,1,-48.35884475708008,0)" style="stroke: none; opacity: 1;">

</path>

</g><g data-idx="74" transform="matrix(1,0,0,1,0,0.5242289304733276)" style="fill: rgb(0, 0, 0); stroke: none; opacity: 1;"><path fill="#152a39" d="M-170.67 452.27A85.33 85.33 0 0 1 0 452.27A85.33 85.33 0 0 1 170.67 452.27A85.33 85.33 0 0 1 341.33 452.27A85.33 85.33 0 0 1 512 452.27A85.33 85.33 0 0 1 682.67 452.27A85.33 85.33 0 0 1 853.33 452.27A85.33 85.33 0 0 1 1024 452.27A85.33 85.33 0 0 1 1194.67 452.27L-170.67 452.27" data-idx="75" transform="matrix(1,0,0,1,-69.00228881835938,0)" style="stroke: none; opacity: 1;">

</path>

</g><g data-idx="78" transform="matrix(1,0,0,1,0,7.5503926277160645)" style="fill: rgb(0, 0, 0); stroke: none; opacity: 1;"><path fill="#161f2e" d="M-85.33 486.40A85.33 85.33 0 0 1 85.33 486.40A85.33 85.33 0 0 1 256 486.40A85.33 85.33 0 0 1 426.67 486.40A85.33 85.33 0 0 1 597.33 486.40A85.33 85.33 0 0 1 768 486.40A85.33 85.33 0 0 1 938.67 486.40A85.33 85.33 0 0 1 1109.33 486.40A85.33 85.33 0 0 1 1280 486.40L-85.33 486.40" data-idx="79" transform="matrix(1,0,0,1,-83.09638214111328,0)" style="stroke: none; opacity: 1;">

</path>

</g><g data-idx="82" transform="matrix(1,0,0,1,0,7.303460597991943)" style="fill: rgb(0, 0, 0); stroke: none; opacity: 1;"><path fill="#171323" d="M-170.67 520.53A85.33 85.33 0 0 1 0 520.53A85.33 85.33 0 0 1 170.67 520.53A85.33 85.33 0 0 1 341.33 520.53A85.33 85.33 0 0 1 512 520.53A85.33 85.33 0 0 1 682.67 520.53A85.33 85.33 0 0 1 853.33 520.53A85.33 85.33 0 0 1 1024 520.53A85.33 85.33 0 0 1 1194.67 520.53L-170.67 520.53" data-idx="83" transform="matrix(1,0,0,1,-82.96328735351562,0)" style="stroke: none; opacity: 1;">

</path>

</g><g data-idx="86" transform="matrix(1,0,0,1,0,0.3792184889316559)" style="fill: rgb(0, 0, 0); stroke: none; opacity: 1;"><path fill="#180718" d="M-85.33 554.67A85.33 85.33 0 0 1 85.33 554.67A85.33 85.33 0 0 1 256 554.67A85.33 85.33 0 0 1 426.67 554.67A85.33 85.33 0 0 1 597.33 554.67A85.33 85.33 0 0 1 768 554.67A85.33 85.33 0 0 1 938.67 554.67A85.33 85.33 0 0 1 1109.33 554.67A85.33 85.33 0 0 1 1280 554.67L-85.33 554.67" data-idx="87" transform="matrix(1,0,0,1,-68.71842956542969,0)" style="stroke: none; opacity: 1;">

</path>

</g><g data-idx="90" style="fill: rgb(0, 0, 0); stroke: none; transform: none; opacity: 1;"></g></g></svg>