<svg xmlns="http://www.w3.org/2000/svg" version="1.1" xmlns:xlink="http://www.w3.org/1999/xlink" xmlns:svgjs="http://svgjs.dev/svgjs" width="1440" height="560" preserveAspectRatio="none" viewBox="0 0 1440 560"><g mask="url(&quot;#SvgjsMask1012&quot;)" fill="none"><rect width="1440" height="560" x="0" y="0" fill="rgba(0, 17, 34, 1)"></rect><path d="M1488 560L0 560 L0 320.81Q64.67 265.48, 120 330.14Q134.44 272.58, 192 287.02Q261.13 236.14, 312 305.27Q401.36 274.63, 432 363.99Q477.12 289.11, 552 334.23Q594.14 304.37, 624 346.51Q648.69 299.2, 696 323.89Q737.53 293.42, 768 334.95Q835.66 282.62, 888 350.28Q915.06 257.33, 1008 284.39Q1081.54 237.93, 1128 311.47Q1204.43 267.9, 1248 344.33Q1314.61 290.94, 1368 357.55Q1410.68 280.24, 1488 322.92z" fill="rgba(17, 131, 3, 1)"></path><path d="M1536 560L0 560 L0 434.2Q42.59 404.79, 72 447.39Q89.03 344.42, 192 361.45Q251.17 348.62, 264 407.79Q341.67 365.46, 384 443.12Q409.65 348.77, 504 374.43Q529.39 327.82, 576 353.21Q670.84 328.05, 696 422.89Q726.78 333.67, 816 364.45Q893.14 321.59, 936 398.73Q991.67 382.4, 1008 438.08Q1030.31 388.38, 1080 410.69Q1123.65 382.35, 1152 426Q1165.59 367.59, 1224 381.17Q1248.87 334.04, 1296 358.91Q1378.05 320.96, 1416 403Q1462.09 329.09, 1536 375.18z" fill="rgba(64, 227, 8, 1)"></path><path d="M1512 560L0 560 L0 430.8Q60.87 419.67, 72 480.54Q121.82 458.36, 144 508.18Q147.38 439.56, 216 442.95Q264.86 371.81, 336 420.67Q417.56 382.23, 456 463.78Q522 409.77, 576 475.77Q608.13 387.9, 696 420.03Q771.58 375.61, 816 451.19Q885.84 401.02, 936 470.86Q1008.72 423.58, 1056 496.3Q1068.35 436.64, 1128 448.99Q1153.14 402.13, 1200 427.27Q1265.65 372.92, 1320 438.58Q1386.72 385.3, 1440 452.02Q1489.07 429.09, 1512 478.16z" fill="rgba(95, 248, 128, 1)"></path><path d="M1464 560L0 560 L0 502.15Q91.97 474.12, 120 566.08Q139.07 513.15, 192 532.22Q257.82 478.04, 312 543.85Q327.38 487.23, 384 502.6Q438.41 437.01, 504 491.43Q566.65 482.08, 576 544.73Q648.18 496.91, 696 569.1Q732.09 485.19, 816 521.29Q845.93 479.22, 888 509.15Q917.39 466.54, 960 495.94Q1018.56 482.5, 1032 541.06Q1080.49 469.55, 1152 518.05Q1234.34 480.39, 1272 562.73Q1275.63 494.36, 1344 497.98Q1409.01 442.99, 1464 508z" fill="white"></path></g><defs><mask id="SvgjsMask1012"><rect width="1440" height="560" fill="#ffffff"></rect></mask></defs></svg>