<?xml version="1.0" encoding="UTF-8"?>
<!DOCTYPE svg PUBLIC "-//W3C//DTD SVG 1.1//EN" "http://www.w3.org/Graphics/SVG/1.1/DTD/svg11.dtd">
<svg xmlns="http://www.w3.org/2000/svg" version="1.1" width="360px" height="360px" style="shape-rendering:geometricPrecision; text-rendering:geometricPrecision; image-rendering:optimizeQuality; fill-rule:evenodd; clip-rule:evenodd" xmlns:xlink="http://www.w3.org/1999/xlink">
<g><path style="opacity:1" fill="#fefefe" d="M -0.5,-0.5 C 119.5,-0.5 239.5,-0.5 359.5,-0.5C 359.5,119.5 359.5,239.5 359.5,359.5C 239.5,359.5 119.5,359.5 -0.5,359.5C -0.5,239.5 -0.5,119.5 -0.5,-0.5 Z"/></g>
<g><path style="opacity:1" fill="#231f20" d="M 168.5,74.5 C 195.06,71.7 215.56,81.3667 230,103.5C 237.555,118.046 239.555,133.379 236,149.5C 224.763,179.039 203.263,192.873 171.5,191C 136.406,182.637 119.906,160.47 122,124.5C 127.718,98.6186 143.218,81.9519 168.5,74.5 Z"/></g>
<g><path style="opacity:1" fill="#231f20" d="M 279.5,279.5 C 279.5,280.5 279.5,281.5 279.5,282.5C 274.968,282.182 270.634,282.515 266.5,283.5C 207.5,284.827 148.5,284.827 89.5,283.5C 86.3752,282.521 83.0419,282.187 79.5,282.5C 79.5,281.5 79.5,280.5 79.5,279.5C 84.7935,243.127 105.46,220.96 141.5,213C 167.572,208.126 193.572,208.46 219.5,214C 253.795,222.769 273.795,244.602 279.5,279.5 Z"/></g>
<g><path style="opacity:1" fill="#8e8c8d" d="M 79.5,279.5 C 79.5,280.5 79.5,281.5 79.5,282.5C 83.0419,282.187 86.3752,282.521 89.5,283.5C 85.8333,283.5 82.1667,283.5 78.5,283.5C 78.2322,281.901 78.5655,280.568 79.5,279.5 Z"/></g>
<g><path style="opacity:1" fill="#8f8e8e" d="M 279.5,279.5 C 280.434,280.568 280.768,281.901 280.5,283.5C 275.833,283.5 271.167,283.5 266.5,283.5C 270.634,282.515 274.968,282.182 279.5,282.5C 279.5,281.5 279.5,280.5 279.5,279.5 Z"/></g>
</svg>
