<svg id="visual" viewBox="0 0 960 540" width="960" height="540" xmlns="http://www.w3.org/2000/svg" xmlns:xlink="http://www.w3.org/1999/xlink" version="1.1"><rect x="0" y="0" width="960" height="540" fill="#001220"></rect><path d="M0 246L22.8 257.2C45.7 268.3 91.3 290.7 137 301C182.7 311.3 228.3 309.7 274 309.3C319.7 309 365.3 310 411.2 303.2C457 296.3 503 281.7 548.8 288C594.7 294.3 640.3 321.7 686 326.8C731.7 332 777.3 315 823 302.2C868.7 289.3 914.3 280.7 937.2 276.3L960 272L960 541L937.2 541C914.3 541 868.7 541 823 541C777.3 541 731.7 541 686 541C640.3 541 594.7 541 548.8 541C503 541 457 541 411.2 541C365.3 541 319.7 541 274 541C228.3 541 182.7 541 137 541C91.3 541 45.7 541 22.8 541L0 541Z" fill="#17fb00"></path><path d="M0 334L22.8 333.2C45.7 332.3 91.3 330.7 137 327.5C182.7 324.3 228.3 319.7 274 325.5C319.7 331.3 365.3 347.7 411.2 354.8C457 362 503 360 548.8 357.7C594.7 355.3 640.3 352.7 686 343.7C731.7 334.7 777.3 319.3 823 312.7C868.7 306 914.3 308 937.2 309L960 310L960 541L937.2 541C914.3 541 868.7 541 823 541C777.3 541 731.7 541 686 541C640.3 541 594.7 541 548.8 541C503 541 457 541 411.2 541C365.3 541 319.7 541 274 541C228.3 541 182.7 541 137 541C91.3 541 45.7 541 22.8 541L0 541Z" fill="#1bd90f"></path><path d="M0 378L22.8 373.8C45.7 369.7 91.3 361.3 137 364.7C182.7 368 228.3 383 274 389.7C319.7 396.3 365.3 394.7 411.2 386.7C457 378.7 503 364.3 548.8 359.8C594.7 355.3 640.3 360.7 686 372.3C731.7 384 777.3 402 823 403.2C868.7 404.3 914.3 388.7 937.2 380.8L960 373L960 541L937.2 541C914.3 541 868.7 541 823 541C777.3 541 731.7 541 686 541C640.3 541 594.7 541 548.8 541C503 541 457 541 411.2 541C365.3 541 319.7 541 274 541C228.3 541 182.7 541 137 541C91.3 541 45.7 541 22.8 541L0 541Z" fill="#1db715"></path><path d="M0 432L22.8 425.5C45.7 419 91.3 406 137 411.7C182.7 417.3 228.3 441.7 274 444.7C319.7 447.7 365.3 429.3 411.2 418.8C457 408.3 503 405.7 548.8 410.2C594.7 414.7 640.3 426.3 686 430.3C731.7 434.3 777.3 430.7 823 428.2C868.7 425.7 914.3 424.3 937.2 423.7L960 423L960 541L937.2 541C914.3 541 868.7 541 823 541C777.3 541 731.7 541 686 541C640.3 541 594.7 541 548.8 541C503 541 457 541 411.2 541C365.3 541 319.7 541 274 541C228.3 541 182.7 541 137 541C91.3 541 45.7 541 22.8 541L0 541Z" fill="#1d9717"></path><path d="M0 468L22.8 469.8C45.7 471.7 91.3 475.3 137 475.8C182.7 476.3 228.3 473.7 274 474C319.7 474.3 365.3 477.7 411.2 475.7C457 473.7 503 466.3 548.8 463.8C594.7 461.3 640.3 463.7 686 468C731.7 472.3 777.3 478.7 823 479.3C868.7 480 914.3 475 937.2 472.5L960 470L960 541L937.2 541C914.3 541 868.7 541 823 541C777.3 541 731.7 541 686 541C640.3 541 594.7 541 548.8 541C503 541 457 541 411.2 541C365.3 541 319.7 541 274 541C228.3 541 182.7 541 137 541C91.3 541 45.7 541 22.8 541L0 541Z" fill="#1c7816"></path></svg>