<?xml version="1.0" encoding="utf-8"?>
<!-- Generator: Adobe Illustrator 27.3.1, SVG Export Plug-In . SVG Version: 6.00 Build 0)  -->
<svg version="1.1" xmlns="http://www.w3.org/2000/svg" xmlns:xlink="http://www.w3.org/1999/xlink" x="0px" y="0px"
	 viewBox="0 0 424 589" style="enable-background:new 0 0 424 589;" xml:space="preserve">
<style type="text/css">
	.st0{opacity:8.000000e-03;fill-rule:evenodd;clip-rule:evenodd;fill:#FEFFFE;enable-background:new    ;}
	.st1{opacity:4.000000e-03;fill-rule:evenodd;clip-rule:evenodd;fill:#FEFFFE;enable-background:new    ;}
	.st2{opacity:0.212;fill-rule:evenodd;clip-rule:evenodd;fill:#7F914C;enable-background:new    ;}
	.st3{opacity:8.200000e-02;fill-rule:evenodd;clip-rule:evenodd;fill:#7D7D7D;enable-background:new    ;}
	.st4{fill-rule:evenodd;clip-rule:evenodd;fill:#343434;}
	.st5{fill-rule:evenodd;clip-rule:evenodd;fill:#1D1F1A;}
	.st6{fill-rule:evenodd;clip-rule:evenodd;fill:#314417;}
	.st7{fill-rule:evenodd;clip-rule:evenodd;fill:#CCC9CC;}
	.st8{fill-rule:evenodd;clip-rule:evenodd;fill:#FBF5F9;}
	.st9{fill-rule:evenodd;clip-rule:evenodd;fill:#657C36;}
	.st10{fill-rule:evenodd;clip-rule:evenodd;fill:#1F1F20;}
	.st11{fill-rule:evenodd;clip-rule:evenodd;fill:#F9F3F7;}
	.st12{fill-rule:evenodd;clip-rule:evenodd;fill:#CDCBCD;}
	.st13{fill-rule:evenodd;clip-rule:evenodd;fill:#6F6F6F;}
	.st14{fill-rule:evenodd;clip-rule:evenodd;fill:#6E883C;}
	.st15{fill-rule:evenodd;clip-rule:evenodd;fill:#1A191A;}
	.st16{fill-rule:evenodd;clip-rule:evenodd;fill:#CBCACB;}
	.st17{opacity:7.100000e-02;fill-rule:evenodd;clip-rule:evenodd;fill:#464746;enable-background:new    ;}
	.st18{opacity:7.500000e-02;fill-rule:evenodd;clip-rule:evenodd;fill:#424342;enable-background:new    ;}
	.st19{opacity:2.400000e-02;fill-rule:evenodd;clip-rule:evenodd;fill:#545554;enable-background:new    ;}
	.st20{fill-rule:evenodd;clip-rule:evenodd;fill:#222222;}
	.st21{fill-rule:evenodd;clip-rule:evenodd;fill:#20300B;}
	.st22{fill-rule:evenodd;clip-rule:evenodd;fill:#1B1A1B;}
	.st23{fill-rule:evenodd;clip-rule:evenodd;fill:#AFC48B;}
	.st24{fill-rule:evenodd;clip-rule:evenodd;fill:#7F807F;}
	.st25{fill-rule:evenodd;clip-rule:evenodd;fill:#96BC4D;}
	.st26{fill-rule:evenodd;clip-rule:evenodd;fill:#858585;}
	.st27{fill-rule:evenodd;clip-rule:evenodd;fill:#6B6B6B;}
	.st28{fill-rule:evenodd;clip-rule:evenodd;fill:#C6C4C7;}
	.st29{fill-rule:evenodd;clip-rule:evenodd;fill:#BFFA45;}
	.st30{fill-rule:evenodd;clip-rule:evenodd;fill:#1D2A10;}
	.st31{fill-rule:evenodd;clip-rule:evenodd;fill:#10130E;}
	.st32{fill-rule:evenodd;clip-rule:evenodd;fill:#505150;}
	.st33{fill-rule:evenodd;clip-rule:evenodd;fill:#86AD3E;}
	.st34{fill-rule:evenodd;clip-rule:evenodd;fill:#C1BFC2;}
	.st35{fill-rule:evenodd;clip-rule:evenodd;fill:#33441B;}
	.st36{fill-rule:evenodd;clip-rule:evenodd;fill:#090E09;}
	.st37{fill-rule:evenodd;clip-rule:evenodd;fill:#ABCF5B;}
	.st38{fill-rule:evenodd;clip-rule:evenodd;fill:#5A6C38;}
	.st39{fill-rule:evenodd;clip-rule:evenodd;fill:#F5F4F2;}
	.st40{fill-rule:evenodd;clip-rule:evenodd;fill:#C9CACC;}
	.st41{fill-rule:evenodd;clip-rule:evenodd;fill:#363636;}
	.st42{fill-rule:evenodd;clip-rule:evenodd;fill:#3C4C1C;}
	.st43{fill-rule:evenodd;clip-rule:evenodd;fill:#596938;}
	.st44{fill-rule:evenodd;clip-rule:evenodd;fill:#979C90;}
	.st45{opacity:0.614;fill-rule:evenodd;clip-rule:evenodd;fill:#BEBEBE;enable-background:new    ;}
	.st46{fill-rule:evenodd;clip-rule:evenodd;fill:#D8D8D7;}
	.st47{fill-rule:evenodd;clip-rule:evenodd;fill:#444442;}
	.st48{fill-rule:evenodd;clip-rule:evenodd;fill:#B1D560;}
	.st49{fill-rule:evenodd;clip-rule:evenodd;fill:#C4C4C3;}
	.st50{fill-rule:evenodd;clip-rule:evenodd;fill:#4E711F;}
	.st51{fill-rule:evenodd;clip-rule:evenodd;fill:#565D4D;}
	.st52{fill-rule:evenodd;clip-rule:evenodd;fill:#5F5F5F;}
	.st53{fill-rule:evenodd;clip-rule:evenodd;fill:#373737;}
	.st54{fill-rule:evenodd;clip-rule:evenodd;fill:#C0FB43;}
	.st55{fill-rule:evenodd;clip-rule:evenodd;fill:#8AB03F;}
	.st56{fill-rule:evenodd;clip-rule:evenodd;fill:#BFE968;}
	.st57{fill-rule:evenodd;clip-rule:evenodd;fill:#21300E;}
	.st58{fill-rule:evenodd;clip-rule:evenodd;fill:#3B3B3A;}
	.st59{fill-rule:evenodd;clip-rule:evenodd;fill:#212120;}
	.st60{fill-rule:evenodd;clip-rule:evenodd;fill:#D5D5D5;}
	.st61{fill-rule:evenodd;clip-rule:evenodd;fill:#3D3D3F;}
	.st62{fill-rule:evenodd;clip-rule:evenodd;fill:#B9B9BA;}
	.st63{fill-rule:evenodd;clip-rule:evenodd;fill:#3D5020;}
	.st64{fill-rule:evenodd;clip-rule:evenodd;fill:#BABAB3;}
	.st65{fill-rule:evenodd;clip-rule:evenodd;fill:#92BA41;}
	.st66{fill-rule:evenodd;clip-rule:evenodd;fill:#BEF946;}
	.st67{fill-rule:evenodd;clip-rule:evenodd;fill:#90BA3D;}
	.st68{opacity:0.69;fill-rule:evenodd;clip-rule:evenodd;fill:#828D6A;enable-background:new    ;}
	.st69{opacity:0.89;fill-rule:evenodd;clip-rule:evenodd;fill:#5B6746;enable-background:new    ;}
	.st70{fill-rule:evenodd;clip-rule:evenodd;fill:#546B2B;}
	.st71{fill-rule:evenodd;clip-rule:evenodd;fill:#1E2D0E;}
	.st72{fill-rule:evenodd;clip-rule:evenodd;fill:#383837;}
	.st73{fill-rule:evenodd;clip-rule:evenodd;fill:#C1E271;}
	.st74{fill-rule:evenodd;clip-rule:evenodd;fill:#96B34E;}
	.st75{fill-rule:evenodd;clip-rule:evenodd;fill:#5E6C44;}
	.st76{fill-rule:evenodd;clip-rule:evenodd;fill:#262625;}
	.st77{fill-rule:evenodd;clip-rule:evenodd;fill:#C5D599;}
	.st78{fill-rule:evenodd;clip-rule:evenodd;fill:#ABB683;}
	.st79{fill-rule:evenodd;clip-rule:evenodd;fill:#EFEFEE;}
	.st80{fill-rule:evenodd;clip-rule:evenodd;fill:#EEEEEC;}
	.st81{fill-rule:evenodd;clip-rule:evenodd;fill:#A0C360;}
	.st82{opacity:0.533;fill-rule:evenodd;clip-rule:evenodd;fill:#D7D8D8;enable-background:new    ;}
	.st83{fill-rule:evenodd;clip-rule:evenodd;fill:#C7CBC3;}
	.st84{opacity:7.100000e-02;fill-rule:evenodd;clip-rule:evenodd;fill:#D4D6D8;enable-background:new    ;}
	.st85{fill-rule:evenodd;clip-rule:evenodd;fill:#BFFC42;}
	.st86{opacity:0.329;fill-rule:evenodd;clip-rule:evenodd;fill:#797979;enable-background:new    ;}
	.st87{fill-rule:evenodd;clip-rule:evenodd;fill:#ABD05A;}
	.st88{fill-rule:evenodd;clip-rule:evenodd;fill:#2A3B19;}
	.st89{fill-rule:evenodd;clip-rule:evenodd;fill:#F3F4F0;}
	.st90{fill-rule:evenodd;clip-rule:evenodd;fill:#B9D47A;}
	.st91{fill-rule:evenodd;clip-rule:evenodd;fill:#262E1E;}
	.st92{fill-rule:evenodd;clip-rule:evenodd;fill:#363535;}
	.st93{fill-rule:evenodd;clip-rule:evenodd;fill:#313E25;}
	.st94{fill-rule:evenodd;clip-rule:evenodd;fill:#6C8936;}
	.st95{fill-rule:evenodd;clip-rule:evenodd;fill:#F0F0EE;}
	.st96{fill-rule:evenodd;clip-rule:evenodd;fill:#8FBE2F;}
	.st97{fill-rule:evenodd;clip-rule:evenodd;fill:#BCE564;}
	.st98{fill-rule:evenodd;clip-rule:evenodd;fill:#58634B;}
	.st99{fill-rule:evenodd;clip-rule:evenodd;fill:#15230B;}
	.st100{fill-rule:evenodd;clip-rule:evenodd;fill:#BAE556;}
	.st101{fill-rule:evenodd;clip-rule:evenodd;fill:#8EB046;}
	.st102{fill-rule:evenodd;clip-rule:evenodd;fill:#677E34;}
	.st103{opacity:0.702;fill-rule:evenodd;clip-rule:evenodd;fill:#343C2B;enable-background:new    ;}
	.st104{fill-rule:evenodd;clip-rule:evenodd;fill:#E6E8E5;}
	.st105{opacity:6.300000e-02;fill-rule:evenodd;clip-rule:evenodd;fill:#CCD1CC;enable-background:new    ;}
	.st106{fill-rule:evenodd;clip-rule:evenodd;fill:#2A3322;}
	.st107{fill-rule:evenodd;clip-rule:evenodd;fill:#28351C;}
	.st108{fill-rule:evenodd;clip-rule:evenodd;fill:#859659;}
	.st109{fill-rule:evenodd;clip-rule:evenodd;fill:#141B0A;}
	.st110{fill-rule:evenodd;clip-rule:evenodd;fill:#353635;}
	.st111{fill-rule:evenodd;clip-rule:evenodd;fill:#95B949;}
	.st112{opacity:0.722;fill-rule:evenodd;clip-rule:evenodd;fill:#434C3A;enable-background:new    ;}
	.st113{fill-rule:evenodd;clip-rule:evenodd;fill:#C9C8C8;}
	.st114{fill-rule:evenodd;clip-rule:evenodd;fill:#89A848;}
	.st115{fill:none;stroke:#000000;stroke-miterlimit:10;}
</style>
<g id="Layer_1">
	<g>
		<path class="st0" d="M350.5,1.5C351.8,2.2,351.8,2.2,350.5,1.5z"/>
	</g>
	<g>
		<path class="st1" d="M188.5,7.5C189.8,8.2,189.8,8.2,188.5,7.5z"/>
	</g>
	<g>
		<path class="st0" d="M256.5,36.5C257.8,37.2,257.8,37.2,256.5,36.5z"/>
	</g>
	<g>
		<path class="st0" d="M149.5,52.5C150.8,53.2,150.8,53.2,149.5,52.5z"/>
	</g>
	<g>
		<path class="st0" d="M364.5,53.5C365.8,54.2,365.8,54.2,364.5,53.5z"/>
	</g>
	<g>
		<path class="st1" d="M205.5,58.5C206.8,59.2,206.8,59.2,205.5,58.5z"/>
	</g>
	<g>
		<path class="st1" d="M40.5,68.5C41.8,69.2,41.8,69.2,40.5,68.5z"/>
	</g>
	<g>
		<path class="st1" d="M276.5,72.5C277.8,73.2,277.8,73.2,276.5,72.5z"/>
	</g>
	<g>
		<path class="st1" d="M343.5,74.5C344.8,75.2,344.8,75.2,343.5,74.5z"/>
	</g>
	<g>
		<path class="st1" d="M344.5,84.5C345.8,85.2,345.8,85.2,344.5,84.5z"/>
	</g>
	<g>
		<path class="st0" d="M117.5,97.5C118.8,98.2,118.8,98.2,117.5,97.5z"/>
	</g>
	<g>
		<path class="st0" d="M202.5,101.5C203.8,102.2,203.8,102.2,202.5,101.5z"/>
	</g>
	<g>
		<path class="st1" d="M316.5,147.5C317.8,148.2,317.8,148.2,316.5,147.5z"/>
	</g>
	<g>
		<path class="st0" d="M331.5,160.5C332.8,161.2,332.8,161.2,331.5,160.5z"/>
	</g>
	<g>
		<path class="st2" d="M264.5,160.5c2.3,0.7,2.4,1.7,0.5,3C264.5,162.6,264.4,161.6,264.5,160.5z"/>
	</g>
	<g>
		<path class="st0" d="M361.5,180.5C362.8,181.2,362.8,181.2,361.5,180.5z"/>
	</g>
	<g>
		<path class="st3" d="M294.5,189.5c0.4-1,1.1-1.2,2-0.5C295.9,189.5,295.2,189.6,294.5,189.5z"/>
	</g>
	<g>
		<path class="st4" d="M234.5,203.5c-2.8,2.7-5.8,5.2-9,7.5c-1.6,0.7-2.9,0.4-4-1c4-5.1,7.3-10.6,10-16.5c-1.5-0.6-2.5-1.6-3-3
			c0.8-6.3,1.2-12.6,1-19c0.8,6.5,1.6,13.2,2.5,20c3.3-13.7,1.5-26.7-5.5-39c0.3-0.7,0.7-1.3,1-2c-3.6-1.2-7.3-1.3-11-0.5
			c-2.7,0.7-4.4,1.8-5,3.5c-1,1.7-2.3,3-4,4c-0.7-1.3-1.5-1.3-2.5,0c-6.2,9.7-10.1,20.4-11.5,32c-3.1,1.6-5.9,1.2-8.5-1
			c-0.5,1.3-0.7,2.6-0.5,4c5.9,1,11.4,3,16.5,6c4-6.6,7.5-6.6,10.5,0c0,0.7,0,1.3,0,2c-0.9-1-1.5-1-2,0c1.4,2.1,2.9,4.1,4.5,6
			c0.6,1.4,0.4,2.7-0.5,4c1.6,1.7,2.3,3.7,2,6c2.3-0.2,4.5-0.9,6.5-2c2.4,2.5,4.1,5.5,5,9c1.1,5.4,2.2,10.7,3.5,16
			c0.3-0.7,0.7-1.3,1-2c-0.9-6-2.2-11.8-4-17.5c0.6-0.4,0.9-0.9,1-1.5c2.4,8.5,4.6,17.1,6.5,26c0.6,1.5,1.5,2.8,2.5,4
			c-1,0.7-2,1.3-3,2c0.8,1.6,1.1,3.2,1,5c-1.6,0.1-2.8-0.5-3.5-2c-1.3,3.6-2.3,7.2-3,11c-2,2.7-3.5,5.7-4.5,9c-1.5,1-3.2,1.3-5,1
			c0.3-2.4,0-4.8-1-7c-2,2.9-3.9,5.9-5.5,9c-0.3-0.9-0.8-1.6-1.5-2c0.2-9.7,0-19.3-0.5-29c-0.2,7.5-0.7,14.8-1.5,22
			c-4.4-2.6-8.8-5.4-13-8.5c-5.2-5.8-10.3-11.7-15.5-17.5c0.9,16.8,2,33.5,3.5,50c-0.2,2.5,0.1,4.8,1,7c-7.2-0.7-13.4-4-18.5-10
			c1.3,3.6,3.8,6.5,7.5,8.5c-0.3,0.2-0.7,0.3-1,0.5c-5.7-3.3-10.7-7.3-15-12c0-0.3,0-0.7,0-1c0.4,0.1,0.8-0.1,1-0.5
			c-1.3-1.4-2.5-2.9-3.5-4.5c-0.5,1.2-1.3,2-2.5,2.5c-2.6,0.5-5.3,0.7-8,0.5c3.1-0.5,6.1-1.5,9-3c-3.9-6.9-7.6-13.9-11-21
			c-2.5,9.7-6.5,18.7-12,27c1.4,2.6,3.1,4.9,5,7c2.3,4.3,5.6,7.6,10,10c-2.4,0.7-4.8,1-7,1c2.2,3.4,5.2,5.9,9,7.5
			c-1.6,0.5-3.3,0.7-5,0.5c-0.7,0.3-1.3,0.7-2,1c-7.2-3.5-13.7-8.2-19.5-14c-3.2-5-6.3-10-9.5-15c-0.3-0.8-0.8-1.5-1.5-2
			c-0.2,3.9-0.7,7.5-1.5,11c-0.1-1.7-0.5-3.4-1-5c0-6.3,0-12.7,0-19c-0.3-4.1,0.1-8.1,1-12c2.5-0.1,5.2-0.3,8-0.5
			c2.5-1.2,4.3-3,5.5-5.5c0.7-5.3,1.1-10.7,1-16c-1.7-2.9-4.2-4.2-7.5-4c2.4-6.8,5.8-13.1,10-19c-4,2.2-7.5,5.5-10.5,10
			c-0.5-0.9-0.6-1.9-0.5-3c0.6-3,1.5-6,2.5-9c1.1-1.5,2.6-2.2,4.5-2c0.2-1.3-0.2-2.5-1-3.5c-3.2-0.2-6.2-1-9-2.5c-0.7,0-1-0.3-1-1
			c3.6,0.8,7.3,0.9,11,0.5c1.6-2.7,3.9-3.9,7-3.5c-2.5-13.1-9.8-22.5-22-28c-8.9-2.6-14.8,0.7-17.5,10c-0.8,3.8-1.3,7.6-1.5,11.5
			c1.7,6.8,3.5,13.6,5.5,20.5c3,2.8,5.8,5.8,8.5,9c2.4,0.5,4.4,1.7,6,3.5c-1,1.2-2,2.3-3,3.5c1.2,1.2,2.3,1.2,3.5,0
			c0.2,1.3-0.3,2.3-1.5,3c-5.7-1.9-10.5-5.3-14.5-10c-13.6-18.4-14.9-37.8-4-58c14.2-18.3,28.6-18.3,43,0c1.1,1.9,2,3.9,2.5,6
			c0.1,1.9-0.4,2.2-1.5,1c-5.4-13.4-15.2-19.3-29.5-17.5c-2.5,1.7-4.8,3.5-7,5.5c0.2,0.3,0.3,0.7,0.5,1c8.1-6.1,16.6-6.6,25.5-1.5
			c7.9,8.3,12.7,18.2,14.5,29.5c-0.1-3.2,0.1-6.2,0.5-9c1.6,5.5,2.6,11.1,3,17c0.5,1.2,1.5,1.9,3,2c2.3-0.7,4.7-1.3,7-2
			c10.7-3.6,21.7-4.8,33-3.5c-1.4-4.5-2.4-9-3-13.5c0-1.3,0-2.7,0-4c4.1-11.4,9.7-21.9,17-31.5c9.5-7.8,19.5-8.4,30-2
			c14,12.4,19.5,27.9,16.5,46.5C241.8,192.8,238.7,198.5,234.5,203.5z"/>
	</g>
	<g>
		<path class="st5" d="M180.5,177.5c0.6,4.5,1.6,9,3,13.5c-11.3-1.3-22.3-0.1-33,3.5c0-0.3,0-0.7,0-1c1.2-0.4,2.2-1.1,3-2
			c4.3-0.7,8.3-2.2,12-4.5c2.1-0.9,3.5-2.4,4-4.5c1.4-1.4,3.1-2.4,5-3C176.7,179.1,178.7,178.5,180.5,177.5z"/>
	</g>
	<g>
		<path class="st6" d="M169.5,182.5c-0.5,2.1-1.9,3.6-4,4.5c-3.7,2.3-7.7,3.8-12,4.5C158.3,187.8,163.7,184.8,169.5,182.5z"/>
	</g>
	<g>
		<path class="st7" d="M107.5,169.5c12.2,5.5,19.5,14.9,22,28c-3.1-0.4-5.4,0.8-7,3.5c-3.7,0.4-7.4,0.3-11-0.5
			c-3.3-0.5-5.5-2.2-6.5-5c2,1.5,4.2,2.9,6.5,4c1.4-10.2-1.9-18.5-10-25c-1.2-0.9-2.6-0.9-4,0C99.7,170.7,103.1,169.1,107.5,169.5z"
			/>
	</g>
	<g>
		<path class="st8" d="M111.5,200.5c0,0.7,0.3,1,1,1c0.2,1.2,0.5,2.4,1,3.5c-1.1,3.8-2.1,7.7-3,11.5c-2.3,0-4.7,0-7,0
			c-5.7-4.2-9.2-9.9-10.5-17c-0.7-5.7-0.7-11.3,0-17c1.3-2.9,2.8-5.5,4.5-8c1.4-0.9,2.8-0.9,4,0c8.1,6.5,11.4,14.8,10,25
			c-2.3-1.1-4.5-2.5-6.5-4C106,198.3,108.2,200,111.5,200.5z"/>
	</g>
	<g>
		<path class="st9" d="M180.5,173.5c0,1.3,0,2.7,0,4c-1.8,1-3.8,1.6-6,2C176.8,177.8,178.8,175.8,180.5,173.5z"/>
	</g>
	<g>
		<path class="st10" d="M229.5,171.5c-0.3-4.4-2-8-5-11c-3-4.7-7.4-7-13-7c0.6-1.7,2.3-2.8,5-3.5c3.7-0.8,7.4-0.7,11,0.5
			c-0.3,0.7-0.7,1.3-1,2c7,12.3,8.8,25.3,5.5,39C231.1,184.7,230.3,178,229.5,171.5z"/>
	</g>
	<g>
		<path class="st11" d="M224.5,160.5c3,3,4.7,6.6,5,11c0.2,6.4-0.2,12.7-1,19c-1.5,4.5-3.8,8.5-7,12c-1.8-2.4-3.3-5.1-4.5-8
			c-2.2-11.3-1.2-22.3,3-33C221.4,160.6,222.9,160.3,224.5,160.5z"/>
	</g>
	<g>
		<path class="st12" d="M211.5,153.5c5.6,0,10,2.3,13,7c-1.6-0.2-3.1,0.1-4.5,1c-4.2,10.7-5.2,21.7-3,33c1.2,2.9,2.7,5.6,4.5,8
			c-0.6,2.2-1.9,3.9-4,5c-2.7-1.9-4.7-4.2-6-7c0-0.7,0-1.3,0-2c1.3-6.2-1-8.3-7-6.5c-1.8,0.6-3.1,1.8-4,3.5c-5.2-13.9-2.8-26.6,7-38
			C209.2,156.5,210.5,155.2,211.5,153.5z"/>
	</g>
	<g>
		<path class="st13" d="M134.5,168.5c1.8,2.6,2.8,5.6,3,9c-0.4,2.8-0.6,5.8-0.5,9c-1.8-11.3-6.6-21.2-14.5-29.5
			c-8.9-5.1-17.4-4.6-25.5,1.5c-0.2-0.3-0.3-0.7-0.5-1c2.2-2,4.5-3.8,7-5.5c14.3-1.8,24.1,4.1,29.5,17.5
			C134.1,170.7,134.6,170.4,134.5,168.5z"/>
	</g>
	<g>
		<path class="st0" d="M131.5,155.5C132.8,156.2,132.8,156.2,131.5,155.5z"/>
	</g>
	<g>
		<path class="st1" d="M124.5,151.5C125.8,152.2,125.8,152.2,124.5,151.5z"/>
	</g>
	<g>
		<path class="st14" d="M150.5,193.5c0,0.3,0,0.7,0,1c-2.3,0.7-4.7,1.3-7,2c-1.5-0.1-2.5-0.8-3-2c0.6,0.1,1.1,0.4,1.5,1
			C144.7,194.3,147.5,193.6,150.5,193.5z"/>
	</g>
	<g>
		<path class="st15" d="M207.5,157.5c-9.8,11.4-12.2,24.1-7,38c0.9-1.7,2.2-2.9,4-3.5c6-1.8,8.3,0.3,7,6.5c-3-6.6-6.5-6.6-10.5,0
			c-5.1-3-10.6-5-16.5-6c-0.2-1.4,0-2.7,0.5-4c2.6,2.2,5.4,2.6,8.5,1c1.4-11.6,5.3-22.3,11.5-32C206,156.2,206.8,156.2,207.5,157.5z
			"/>
	</g>
	<g>
		<path class="st0" d="M238.5,204.5C239.8,205.2,239.8,205.2,238.5,204.5z"/>
	</g>
	<g>
		<path class="st16" d="M112.5,201.5c2.8,1.5,5.8,2.3,9,2.5c0.8,1,1.2,2.2,1,3.5c-1.9-0.2-3.4,0.5-4.5,2c-1,3-1.9,6-2.5,9
			c-0.9,1.1-1.3,2.4-1,4c-4.2-1.2-7.8-3.2-11-6c2.3,0,4.7,0,7,0c0.9-3.8,1.9-7.7,3-11.5C113,203.9,112.7,202.7,112.5,201.5z"/>
	</g>
	<g>
		<path class="st0" d="M254.5,214.5C255.8,215.2,255.8,215.2,254.5,214.5z"/>
	</g>
	<g>
		<path class="st17" d="M285.5,216.5C284.8,215.2,284.8,215.2,285.5,216.5z"/>
	</g>
	<g>
		<path class="st18" d="M285.5,216.5C286.8,217.2,286.8,217.2,285.5,216.5z"/>
	</g>
	<g>
		<path class="st19" d="M286.5,218.5C287.8,219.2,287.8,219.2,286.5,218.5z"/>
	</g>
	<g>
		<path class="st20" d="M107.5,169.5c-4.4-0.4-7.8,1.2-10,5c-1.7,2.5-3.2,5.1-4.5,8c-0.7,5.7-0.7,11.3,0,17
			c1.3,7.1,4.8,12.8,10.5,17c3.2,2.8,6.8,4.8,11,6c0.4-0.1,0.8,0.1,1,0.5c-2.1,2.5-3.6,5.3-4.5,8.5c-0.7-0.8-1.5-1.1-2.5-1
			c-0.3,0-0.7,0-1,0c1.2-0.7,1.7-1.7,1.5-3c-1.2,1.2-2.3,1.2-3.5,0c1-1.2,2-2.3,3-3.5c-1.6-1.8-3.6-3-6-3.5c-2.7-3.2-5.5-6.2-8.5-9
			c-2-6.9-3.8-13.7-5.5-20.5c0.2-3.9,0.7-7.7,1.5-11.5C92.7,170.2,98.6,166.9,107.5,169.5z"/>
	</g>
	<g>
		<path class="st21" d="M239.5,224.5c2.1,1.1,3.4,2.8,4,5C241.4,228.4,240.1,226.7,239.5,224.5z"/>
	</g>
	<g>
		<path class="st22" d="M228.5,190.5c0.5,1.4,1.5,2.4,3,3c-2.7,5.9-6,11.4-10,16.5c1.1,1.4,2.4,1.7,4,1c3.2-2.3,6.2-4.8,9-7.5
			c-1.8,5.4-1.2,10.4,2,15c-1.7-0.4-3.3-0.9-5-1.5c0.5-0.4,0.8-0.9,1-1.5c-0.5-2.1-1.5-3.8-3-5c-1-0.2-1.7,0.2-2,1
			c-1.9,1.5-2.4,3.5-1.5,6c0.7,0.8,1.5,1.1,2.5,1c-0.1,0.6-0.4,1.1-1,1.5c1.8,5.7,3.1,11.5,4,17.5c-0.3,0.7-0.7,1.3-1,2
			c-1.3-5.3-2.4-10.6-3.5-16c-0.9-3.5-2.6-6.5-5-9c-2,1.1-4.2,1.8-6.5,2c0.3-2.3-0.4-4.3-2-6c0.9-1.3,1.1-2.6,0.5-4
			c-1.6-1.9-3.1-3.9-4.5-6c0.5-1,1.1-1,2,0c1.3,2.8,3.3,5.1,6,7c2.1-1.1,3.4-2.8,4-5C224.7,199,227,195,228.5,190.5z"/>
	</g>
	<g>
		<path class="st23" d="M229.5,210.5c0.4,2.2,0.4,4.2,0,6c-1.4-1.4-2.1-3-2-5C227.8,210.7,228.5,210.3,229.5,210.5z"/>
	</g>
	<g>
		<path class="st24" d="M108.5,268.5c-1.9-1.1-3.4-2.8-4.5-5c-1.1,1.2-1.6,0.9-1.5-1c0.2-10.7,2.5-20.8,7-30.5
			c-0.6-0.4-0.9-0.9-1-1.5c1-0.1,1.8,0.2,2.5,1c0.9-3.2,2.4-6,4.5-8.5c-0.2-0.4-0.6-0.6-1-0.5c-0.3-1.6,0.1-2.9,1-4
			c-0.1,1.1,0,2.1,0.5,3c3-4.5,6.5-7.8,10.5-10c-4.2,5.9-7.6,12.2-10,19c3.3-0.2,5.8,1.1,7.5,4c0.1,5.3-0.3,10.7-1,16
			c-1.2,2.5-3,4.3-5.5,5.5c-2.8,0.2-5.5,0.4-8,0.5C108.6,260.4,108.2,264.4,108.5,268.5z"/>
	</g>
	<g>
		<path class="st25" d="M237.5,223.5c-1.2-0.2-2.2,0.1-3,1c2.2,7.9,3.9,15.9,5,24c-1.7-1.6-2.9-3.6-3.5-6c0-8.1-1.8-15.8-5.5-23
			C233.3,219.4,235.6,220.7,237.5,223.5z"/>
	</g>
	<g>
		<path class="st26" d="M127.5,234.5c6.3-0.2,8.8,2.8,7.5,9c-1.6,5.3-4.6,6.3-9,3C125.1,242.2,125.6,238.2,127.5,234.5z"/>
	</g>
	<g>
		<path class="st27" d="M140.5,220.5c0.8,5.8,1.3,11.8,1.5,18c1.7,2.1,1.9,4.5,0.5,7c1.2,4,2,8,2.5,12c-2.3-4-3.4-8.4-3.5-13
			c-2.7,0.4-4.1-0.7-4-3.5C139.2,234.4,140.2,227.5,140.5,220.5z"/>
	</g>
	<g>
		<path class="st0" d="M309.5,237.5C310.8,238.2,310.8,238.2,309.5,237.5z"/>
	</g>
	<g>
		<path class="st28" d="M209.5,267.5c0,1,0,2,0,3c-7.9,0.4-15.5,1.9-23,4.5c-0.8,1.1-1.5,2.3-2,3.5c0.5,1,1.1,1,2,0
			c-1.6,4.2-2.2,8.5-2,13c-1.5-16.5-2.6-33.2-3.5-50c5.2,5.8,10.3,11.7,15.5,17.5C200.7,262.1,205.1,264.9,209.5,267.5z"/>
	</g>
	<g>
		<path class="st29" d="M237.5,223.5c0.7,0.3,1.3,0.7,2,1c0.6,2.2,1.9,3.9,4,5c12.8,14.3,23.2,30.3,31,48c-8.3,1.9-16.9,2.9-26,3
			c-2.1-0.1-3.6-1.1-4.5-3c-3.9-7.6-5.2-15.6-4-24c1.4-0.7,2.9-1.2,4.5-1.5c-1-0.5-2-1-3-1.5c-1-0.3-1.7-1-2-2
			c-1.1-8.1-2.8-16.1-5-24C235.3,223.6,236.3,223.3,237.5,223.5z"/>
	</g>
	<g>
		<path class="st30" d="M229.5,210.5c1.5,1.2,2.5,2.9,3,5c-0.2,0.6-0.5,1.1-1,1.5c1.7,0.6,3.3,1.1,5,1.5c1.5,1.7,2.5,3.7,3,6
			c-0.7-0.3-1.3-0.7-2-1c-1.9-2.8-4.2-4.1-7-4c3.7,7.2,5.5,14.9,5.5,23c0.6,2.4,1.8,4.4,3.5,6c0.3,1,1,1.7,2,2c-1.1,0.9-2.4,1.3-4,1
			c-0.6,7.8-1.9,15.5-4,23c0.3,2.1,0.5,4.1,0.5,6c-0.9-0.8-1.6-1.8-2-3c-1.1,2.1-2.2,4.1-3.5,6c0-2.3,0-4.7,0-7c1.3,0,2.7,0,4,0
			c0.1-7.2,1.1-14.2,3-21c0.1-1.8-0.2-3.4-1-5c1-0.7,2-1.3,3-2c-1-1.2-1.9-2.5-2.5-4c-1.9-8.9-4.1-17.5-6.5-26c-1,0.1-1.8-0.2-2.5-1
			c-0.9-2.5-0.4-4.5,1.5-6c-0.1,2,0.6,3.6,2,5C229.9,214.7,229.9,212.7,229.5,210.5z"/>
	</g>
	<g>
		<path class="st1" d="M376.5,269.5C377.8,270.2,377.8,270.2,376.5,269.5z"/>
	</g>
	<g>
		<path class="st31" d="M209.5,270.5c1.3,0.7,1.3,1.3,0,2c-0.7,1.7-1.3,3.3-2,5c0-1.3,0-2.7,0-4c-1.7,0-3.3,0-5,0
			c0.4,3.4-0.3,6.6-2,9.5c-4.7,0.5-7-1.7-7-6.5c-1.6-0.3-2.9,0.1-4,1c-0.3,0-0.7,0-1,0c-1-0.2-1.7,0.2-2,1c-0.9,1-1.5,1-2,0
			c0.5-1.2,1.2-2.4,2-3.5C194,272.4,201.6,270.9,209.5,270.5z"/>
	</g>
	<g>
		<path class="st32" d="M211.5,274.5c-0.2,7.9-2.2,15.3-6,22c-0.6-0.4-1.3-0.7-2-1c1.7-2.1,2.6-4.4,2.5-7c-2.9,1.9-6,2.9-9.5,3
			c4-1.2,7.7-3.2,11-6c1.4-4.2,2.1-8.5,2-13c1.3-0.7,1.3-1.3,0-2c0-1,0-2,0-3c0.8-7.2,1.3-14.5,1.5-22
			C211.5,255.2,211.7,264.8,211.5,274.5z"/>
	</g>
	<g>
		<path class="st33" d="M241.5,250.5c1,0.5,2,1,3,1.5c-1.6,0.3-3.1,0.8-4.5,1.5c-1.2,8.4,0.1,16.4,4,24c0.9,1.9,2.4,2.9,4.5,3
			c-6.9,1.7-13.5,4-20,7c0-1,0-2,0-3c0-0.3,0-0.7,0-1c1.3-1.9,2.4-3.9,3.5-6c0.4,1.2,1.1,2.2,2,3c0-1.9-0.2-3.9-0.5-6
			c2.1-7.5,3.4-15.2,4-23C239.1,251.8,240.4,251.4,241.5,250.5z"/>
	</g>
	<g>
		<path class="st34" d="M145.5,282.5c-3.7,0.6-7.3,1.3-11,2c-0.7,2.4,0.2,4.4,2.5,6c0.5-1.3,0.7-2.6,0.5-4c1,0,2,0,3,0
			c0.5,1.6,0.9,3.3,1,5c-2-1.4-3.6-1-5,1c-1.9-2.1-3.6-4.4-5-7c5.5-8.3,9.5-17.3,12-27c3.4,7.1,7.1,14.1,11,21
			C151.6,281,148.6,282,145.5,282.5z"/>
	</g>
	<g>
		<path class="st35" d="M274.5,277.5c1.2,1,1.8,2.3,2,4c-0.3,0-0.7,0-1,0c-11.5-0.6-22.8,0.3-34,2.5c-0.7,2.8-2.2,3.6-4.5,2.5
			c-3.9,1.7-7.8,2.4-11.5,2c1.2-1.2,2.2-2.6,3-4c0,1,0,2,0,3c6.5-3,13.1-5.3,20-7C257.6,280.4,266.2,279.4,274.5,277.5z"/>
	</g>
	<g>
		<path class="st36" d="M158.5,284.5c-1.7,0-3.3,0-5,0c0,2,0,4,0,6c-1.2,1.9-2.8,2.4-5,1.5c-1.5-1.9-2.2-4.1-2-6.5
			c-1.9-0.3-3.6,0-5,1c-0.3,0-0.7,0-1,0c-1,0-2,0-3,0c0.2,1.4,0,2.7-0.5,4c-2.3-1.6-3.2-3.6-2.5-6c3.7-0.7,7.3-1.4,11-2
			c2.7,0.2,5.4,0,8-0.5c1.2-0.5,2-1.3,2.5-2.5c1,1.6,2.2,3.1,3.5,4.5C159.3,284.4,158.9,284.6,158.5,284.5z"/>
	</g>
	<g>
		<path class="st35" d="M188.5,277.5c0.3,0,0.7,0,1,0c0.5,7,4.2,10.2,11,9.5c2.5-1.4,4.5-3.2,6-5.5c-2,6.2-6.4,8.5-13,7
			C190.1,285.7,188.4,282,188.5,277.5z"/>
	</g>
	<g>
		<path class="st37" d="M207.5,277.5c0.3,1.6-0.1,2.9-1,4c-1.5,2.3-3.5,4.1-6,5.5c-6.8,0.7-10.5-2.5-11-9.5c1.1-0.9,2.4-1.3,4-1
			c0,4.8,2.3,7,7,6.5c1.7-2.9,2.4-6.1,2-9.5c1.7,0,3.3,0,5,0C207.5,274.8,207.5,276.2,207.5,277.5z"/>
	</g>
	<g>
		<path class="st38" d="M102.5,262.5c-0.1,1.9,0.4,2.2,1.5,1c1.1,2.2,2.6,3.9,4.5,5c0,6.3,0,12.7,0,19c-0.7-2-1.3-4-2-6
			c0.2-4,0-8-0.5-12c-1.2-4.3-2.5-4.7-4-1c-4.8,15.3-6.7,31-5.5,47c-0.3,0-0.7,0-1,0C93.6,297.2,95.9,279.6,102.5,262.5z"/>
	</g>
	<g>
		<path class="st39" d="M188.5,277.5c-0.1,4.5,1.6,8.2,5,11c-0.5,0.1-0.9,0.4-1,1c1.1,1.2,2.4,1.9,4,2c3.5-0.1,6.6-1.1,9.5-3
			c0.1,2.6-0.8,4.9-2.5,7c0.7,0.3,1.4,0.6,2,1c-0.5,1-1.1,1.8-2,2.5c0.3,0.2,0.7,0.3,1,0.5c2.7-1.9,5.3-3.4,8-4.5
			c-1.8,4-4.2,7.7-7,11c3.3-1.2,6.1-3.4,8.5-6.5c-3.9,7.3-9.4,13.4-16.5,18.5c-5,3.5-10.4,6.5-16,9c-12.7,0.9-24.4-2.1-35-9
			c-1.4-1.3-2.4-2.8-3-4.5c0-0.7,0-1.3,0-2c1.7,0.2,3.4,0,5-0.5c-3.8-1.6-6.8-4.1-9-7.5c2.2,0,4.6-0.3,7-1c-4.4-2.4-7.7-5.7-10-10
			c1.4-2,3-2.4,5-1c1.4,2.4,3.4,4,6,5c0.8,0.8,1.8,1.3,3,1.5c-2.1,0.3-4.1,0.3-6,0c3.9,1.9,7.9,1.9,12,0c-0.9-0.3-1.6-0.8-2-1.5
			c2.8-0.9,4.1-2.9,4-6c5.6,4.2,11.6,7.8,18,11c1.2-0.5,2.4-1.2,3.5-2c1.9,1.5,4.1,2.2,6.5,2c0.2-1.3-0.1-2.3-1-3
			c-0.9-2.2-1.2-4.5-1-7c-0.2-4.5,0.4-8.8,2-13C186.8,277.7,187.5,277.3,188.5,277.5z"/>
	</g>
	<g>
		<path class="st40" d="M275.5,281.5c0.3,0,0.7,0,1,0c1.2,1.7,1.9,3.7,2,6C277,285.8,276,283.8,275.5,281.5z"/>
	</g>
	<g>
		<path class="st41" d="M275.5,281.5c0.5,2.3,1.5,4.3,3,6c0.9,4.2,2.6,7.8,5,11c-1.4,5.1-4.1,9.4-8,13c-3.4-4.1-6.4-8.4-9-13
			c-4.1-0.8-8.5-1.3-13-1.5c5.9-0.7,11.7-0.5,17.5,0.5c1.2-0.2,2.3-0.3,3.5-0.5c-18.7-3.3-36.4-0.5-53,8.5c-2.8-1.5-3.6-3.8-2.5-7
			c1.8-2.9,4-5.4,6.5-7.5c-1.3-1-1.3-1.8,0-2.5c3.7,0.4,7.6-0.3,11.5-2c2.3,1.1,3.8,0.3,4.5-2.5C252.7,281.8,264,280.9,275.5,281.5z
			"/>
	</g>
	<g>
		<path class="st42" d="M140.5,286.5c0.3,0,0.7,0,1,0c1,4,3,7.3,6,10c-2.6-1-4.6-2.6-6-5C141.4,289.8,141,288.1,140.5,286.5z"/>
	</g>
	<g>
		<path class="st43" d="M158.5,284.5c0,0.3,0,0.7,0,1c0,1.7,0,3.3,0,5c0.1,3.1-1.2,5.1-4,6c2.1-2.7,2.4-5.7,1-9
			c-0.7,1.1-1.3,2.1-2,3c0-2,0-4,0-6C155.2,284.5,156.8,284.5,158.5,284.5z"/>
	</g>
	<g>
		<path class="st44" d="M209.5,272.5c0.1,4.5-0.6,8.8-2,13c-3.3,2.8-7,4.8-11,6c-1.6-0.1-2.9-0.8-4-2c0.1-0.6,0.5-0.9,1-1
			c6.6,1.5,11-0.8,13-7c0.9-1.1,1.3-2.4,1-4C208.2,275.8,208.8,274.2,209.5,272.5z"/>
	</g>
	<g>
		<path class="st45" d="M278.5,287.5c2.5,3.3,4.1,6.9,5,11C281.1,295.3,279.4,291.7,278.5,287.5z"/>
	</g>
	<g>
		<path class="st0" d="M289.5,290.5C290.8,291.2,290.8,291.2,289.5,290.5z"/>
	</g>
	<g>
		<path class="st46" d="M266.5,283.5c1.9,0.1,3.1,1.1,3.5,3c1.2,2,1.4,4,0.5,6c-3.7-0.7-7-2.2-10-4.5
			C262.4,286.2,264.4,284.7,266.5,283.5z"/>
	</g>
	<g>
		<path class="st47" d="M265.5,285.5c1,0,2,0,3,0c1.4,6-0.3,6.6-5,2C264.2,286.8,264.9,286.2,265.5,285.5z"/>
	</g>
	<g>
		<path class="st48" d="M153.5,290.5c0.7-0.9,1.3-1.9,2-3c1.4,3.3,1.1,6.3-1,9c-2.3,0-4.7,0-7,0c-3-2.7-5-6-6-10c1.4-1,3.1-1.3,5-1
			c-0.2,2.4,0.5,4.6,2,6.5C150.7,292.9,152.3,292.4,153.5,290.5z"/>
	</g>
	<g>
		<path class="st49" d="M158.5,285.5c4.3,4.7,9.3,8.7,15,12c0.3-0.2,0.7-0.3,1-0.5c-3.7-2-6.2-4.9-7.5-8.5c5.1,6,11.3,9.3,18.5,10
			c0.9,0.7,1.2,1.7,1,3c-2.4,0.2-4.6-0.5-6.5-2c-1.1,0.8-2.3,1.5-3.5,2c-6.4-3.2-12.4-6.8-18-11
			C158.5,288.8,158.5,287.2,158.5,285.5z"/>
	</g>
	<g>
		<path class="st50" d="M112.5,283.5c-2.4,7.4-0.7,13.9,5,19.5c-0.2,0.4-0.6,0.6-1,0.5c-3.5-2.9-5.8-6.5-7-11
			c0.8-3.5,1.3-7.1,1.5-11C111.7,282,112.2,282.7,112.5,283.5z"/>
	</g>
	<g>
		<path class="st51" d="M147.5,296.5c2.3,0,4.7,0,7,0c0.4,0.7,1.1,1.2,2,1.5c-4.1,1.9-8.1,1.9-12,0c1.9,0.3,3.9,0.3,6,0
			C149.3,297.8,148.3,297.3,147.5,296.5z"/>
	</g>
	<g>
		<path class="st52" d="M266.5,298.5c-4.3,0-8.7,0-13,0c0.2,1.3-0.1,2.3-1,3c0-1,0-2,0-3c-7.8-0.3-15.4,1.2-23,4.5
			c-7.7,3.8-15.3,7.7-23,11.5c-1.2-0.3-1.2-0.8,0-1.5c5-2.5,10-5,15-7.5c16.6-9,34.3-11.8,53-8.5c-1.2,0.2-2.3,0.3-3.5,0.5
			c-5.8-1-11.6-1.2-17.5-0.5C258,297.2,262.4,297.7,266.5,298.5z"/>
	</g>
	<g>
		<path class="st53" d="M252.5,298.5c0,1,0,2,0,3c-3.4,20.8-8.6,41.1-15.5,61c-4.3,8.7-9.1,17.1-14.5,25c-0.7,0.3-1.3,0.7-2,1
			c0-0.3,0-0.7,0-1c3.1-5.9,1.1-8.9-6-9c-2.2,0.1-4.2,0.8-6,2c-1.2-1-2-2.4-2.5-4c-0.5-14.3-0.2-28.7,1-43c1.8-4.9,3.3-9.9,4.5-15
			c1.5-1.4,2.8-2.9,4-4.5c9.7-5.8,20-10,31-12.5c0.9,0.1,1.8,0.4,2.5,1C249.7,300.7,250.9,299.3,252.5,298.5z"/>
	</g>
	<g>
		<path class="st54" d="M106.5,281.5c0.7,2,1.3,4,2,6c0.5,1.6,0.9,3.3,1,5c1.2,4.5,3.5,8.1,7,11c0.9,1.9,1.5,3.9,2,6
			c-0.2,1.2-0.9,1.9-2,2c-6,0.2-12,0.5-18,1c-1.3-13.9,0-27.6,4-41c1,0,2,0,3,0C105.2,275,105.5,278.4,106.5,281.5z"/>
	</g>
	<g>
		<path class="st55" d="M112.5,283.5c3.2,5,6.3,10,9.5,15c5.8,5.8,12.3,10.5,19.5,14c-8.1,0.2-16.5,0.2-25,0c0-0.3,0-0.7,0-1
			c1.1-0.1,1.8-0.8,2-2c-0.5-2.1-1.1-4.1-2-6c0.4,0.1,0.8-0.1,1-0.5C111.8,297.4,110.1,290.9,112.5,283.5z"/>
	</g>
	<g>
		<path class="st1" d="M90.5,309.5C91.8,310.2,91.8,310.2,90.5,309.5z"/>
	</g>
	<g>
		<path class="st56" d="M106.5,281.5c-1-3.1-1.3-6.5-1-10c-1,0-2,0-3,0c-4,13.4-5.3,27.1-4,41c6-0.5,12-0.8,18-1c0,0.3,0,0.7,0,1
			c-6.2-0.1-12.2,0.9-18,3c-0.7,0-1.3,0-2,0c-1.2-16,0.7-31.7,5.5-47c1.5-3.7,2.8-3.3,4,1C106.5,273.5,106.7,277.5,106.5,281.5z"/>
	</g>
	<g>
		<path class="st57" d="M143.5,311.5c0,0.7,0,1.3,0,2c-1.3,0.7-2.7,1.3-4,2c-13.2-2.7-26.4-2.4-39.5,1c-0.8-0.1-1.3-0.4-1.5-1
			c5.8-2.1,11.8-3.1,18-3c8.5,0.2,16.9,0.2,25,0C142.2,312.2,142.8,311.8,143.5,311.5z"/>
	</g>
	<g>
		<path class="st58" d="M139.5,315.5c2.5,2.8,3.5,6.2,3,10c1.6-0.3,2.9,0.1,4,1c-5.3-0.4-10.3,0.3-15,2c-3.9-0.1-7.6,0.6-11,2
			c-6.3,1.3-12.3,3.5-18,6.5c-1.3,0.7-2.7,0.7-4,0c-1.5-2.6-2.4-5.4-2.5-8.5c-0.5-4.3-0.7-8.7-0.5-13c0.3,0,0.7,0,1,0
			c0.7,0,1.3,0,2,0c0.2,0.6,0.7,0.9,1.5,1C113.1,313.1,126.3,312.8,139.5,315.5z"/>
	</g>
	<g>
		<path class="st59" d="M235.5,255.5c-1.9,6.8-2.9,13.8-3,21c-1.3,0-2.7,0-4,0c0,2.3,0,4.7,0,7c0,0.3,0,0.7,0,1
			c-0.8,1.4-1.8,2.8-3,4c-1.3,0.7-1.3,1.5,0,2.5c-2.5,2.1-4.7,4.6-6.5,7.5c-1.1,3.2-0.2,5.5,2.5,7c-5,2.5-10,5-15,7.5
			c-1.2,0.7-1.2,1.2,0,1.5c7.7-3.8,15.3-7.7,23-11.5c7.6-3.3,15.2-4.8,23-4.5c-1.6,0.8-2.8,2.2-3.5,4c-0.7-0.6-1.6-0.9-2.5-1
			c-11,2.5-21.3,6.7-31,12.5c-1.2,1.6-2.5,3.1-4,4.5c-1.2,5.1-2.7,10.1-4.5,15c-1.2,14.3-1.5,28.7-1,43c0.5,1.6,1.3,3,2.5,4
			c-1,0.3-1.7,1-2,2c-0.7,0.3-1.3,0.7-2,1c0-0.7-0.3-1-1-1c-3-5.2-4.7-10.8-5-17c0.2-4.4-0.1-8.7-1-13c1.3-10.2,1.3-20.5,0-31
			c-0.6,0.1-0.9,0.5-1,1c-1.7,1-3,2.3-4,4c-0.7,1.3-1.3,2.7-2,4c-3.9,1.2-7.9,2.2-12,3c0.9,2.2,1.2,4.6,1,7c0.2,2.7,0,5.4-0.5,8
			c-0.5-0.9-0.6-1.9-0.5-3c-0.1-4.7-1.1-9-3-13c0-0.7-0.3-1-1-1c-1.4-1-3.1-1.3-5-1c-1.6-1.4-3.6-2.3-6-2.5
			c-5.7-0.6-11.3-1.1-17-1.5c-1.1-0.9-2.4-1.3-4-1c0.5-3.8-0.5-7.2-3-10c1.3-0.7,2.7-1.3,4-2c0.6,1.7,1.6,3.2,3,4.5
			c10.6,6.9,22.3,9.9,35,9c5.6-2.5,11-5.5,16-9c7.1-5.1,12.6-11.2,16.5-18.5c-2.4,3.1-5.2,5.3-8.5,6.5c2.8-3.3,5.2-7,7-11
			c-2.7,1.1-5.3,2.6-8,4.5c-0.3-0.2-0.7-0.3-1-0.5c0.9-0.7,1.5-1.5,2-2.5c3.8-6.7,5.8-14.1,6-22c0.7,0.4,1.2,1.1,1.5,2
			c1.6-3.1,3.5-6.1,5.5-9c1,2.2,1.3,4.6,1,7c1.8,0.3,3.5,0,5-1c1-3.3,2.5-6.3,4.5-9c0.7-3.8,1.7-7.4,3-11
			C232.7,255,233.9,255.6,235.5,255.5z"/>
	</g>
	<g>
		<path class="st60" d="M103.5,317.5c4.2,0.1,8.2,1,12,2.5c-2.8,3-5.8,5.9-9,8.5c-1.5-0.9-2.3-2.2-2.5-4
			C103.5,322.2,103.3,319.9,103.5,317.5z"/>
	</g>
	<g>
		<path class="st61" d="M105.5,319.5c2.1-0.3,4.1,0,6,1c-1.3,1.8-2.8,3.5-4.5,5C106.2,323.6,105.7,321.6,105.5,319.5z"/>
	</g>
	<g>
		<path class="st62" d="M97.5,317.5c0.8,0.8,1.3,1.8,1.5,3c0.7,4.7,1,9.3,1,14C97.9,329.1,97.1,323.4,97.5,317.5z"/>
	</g>
	<g>
		<path class="st63" d="M146.5,326.5c5.7,0.4,11.3,0.9,17,1.5c2.4,0.2,4.4,1.1,6,2.5c-8.3-0.7-16.7-1.3-25-2c-3,0.2-6,0.3-9,0.5
			c-1.5,0.7-2.1,1.9-2,3.5c0.2,5.5,1.2,10.8,3,16c-0.3,0-0.7,0-1,0c-0.6,0.1-1.1,0.4-1.5,1c-0.3-0.9-0.8-1.6-1.5-2
			c0.5-0.9,0.8-1.9,1-3c-1.2-3.6-2.4-7.3-3.5-11c-0.4,0.6-0.9,0.9-1.5,1c-0.4-1-1.1-1-2,0c0-0.3,0-0.7,0-1c0.3-3.6,1.6-3.9,4-1
			c0.9-1.2,1.3-2.5,1-4C136.2,326.8,141.2,326.1,146.5,326.5z"/>
	</g>
	<g>
		<path class="st64" d="M131.5,328.5c0.3,1.5-0.1,2.8-1,4c-2.4-2.9-3.7-2.6-4,1c-0.9-0.7-1.2-1.7-1-3c-1.7,0-3.3,0-5,0
			C123.9,329.1,127.6,328.4,131.5,328.5z"/>
	</g>
	<g>
		<path class="st65" d="M196.5,322.5c1,6.8,1.3,13.8,1,21c-1.7,0-3.3,0-5,0c0-5.7,0-11.3,0-17C193.5,324.8,194.8,323.5,196.5,322.5z
			"/>
	</g>
	<g>
		<path class="st66" d="M153.5,338.5c-6.7,1.7-12.3,5-17,10c-1.8-5.2-2.8-10.5-3-16c6.8-3.3,14-3.9,21.5-2c4.4,0.1,6.6,2.5,6.5,7
			C158.6,337.2,155.9,337.5,153.5,338.5z"/>
	</g>
	<g>
		<path class="st67" d="M169.5,330.5c1.9-0.3,3.6,0,5,1c-0.7,3.3-1,6.6-1,10c-2.9,0-5.6-0.8-8-2.5c-4-0.5-8-0.7-12-0.5
			c2.4-1,5.1-1.3,8-1c0.1-4.5-2.1-6.9-6.5-7c-7.5-1.9-14.7-1.3-21.5,2c-0.1-1.6,0.5-2.8,2-3.5c3-0.2,6-0.3,9-0.5
			C152.8,329.2,161.2,329.8,169.5,330.5z"/>
	</g>
	<g>
		<path class="st68" d="M128.5,334.5c0.6,4.7,1.9,9,4,13c0.7,0.4,1.2,1.1,1.5,2c0.4-0.6,0.9-0.9,1.5-1c-0.2,1,0.2,1.7,1,2
			c0,2,0,4,0,6c-0.7-1.5-1.3-3.2-2-5c-1.8-0.6-3.3-1.6-4.5-3c-1.5-4.6-2.6-9.3-3.5-14C127.4,333.5,128.1,333.5,128.5,334.5z"/>
	</g>
	<g>
		<path class="st69" d="M192.5,326.5c0,5.7,0,11.3,0,17c0.7,2.6,1.2,5.2,1.5,8c0.3-0.3,0.7-0.7,1-1c0.4,1.3,1.2,1.9,2.5,2
			c0.9,4.3,1.2,8.6,1,13c-0.7-3.2-1.3-6.5-2-10c-1.8-0.6-3.3-1.6-4.5-3c-0.8-7.3-1.3-14.6-1.5-22
			C191.2,329.2,191.8,327.8,192.5,326.5z"/>
	</g>
	<g>
		<path class="st0" d="M10.5,337.5C11.8,338.2,11.8,338.2,10.5,337.5z"/>
	</g>
	<g>
		<path class="st70" d="M196.5,322.5c0.1-0.5,0.4-0.9,1-1c1.3,10.5,1.3,20.8,0,31c-1.2-0.1-2.1-0.7-2.5-2c-0.3,0.3-0.7,0.7-1,1
			c-0.3-2.8-0.8-5.4-1.5-8c1.7,0,3.3,0,5,0C197.8,336.3,197.5,329.3,196.5,322.5z"/>
	</g>
	<g>
		<path class="st71" d="M174.5,331.5c0.7,0,1,0.3,1,1c-0.2,4.3-0.6,8.7-1,13c-0.9-0.7-1.2-1.7-1-3c-4.4-0.4-8.7-1-13-2
			c-9.6-0.4-17.6,3-24,10c-0.8-0.3-1.2-1-1-2c0.3,0,0.7,0,1,0c4.7-5,10.3-8.3,17-10c4-0.2,8,0,12,0.5c2.4,1.7,5.1,2.5,8,2.5
			C173.5,338.1,173.8,334.8,174.5,331.5z"/>
	</g>
	<g>
		<path class="st72" d="M160.5,340.5c3.9,5.3,6.4,11.3,7.5,18c0.8,8.4,1.3,16.5,1.5,24.5c-0.9,0.3-1.6,0.8-2,1.5
			c-2.6-0.8-5.3-0.9-8-0.5c-5.3,1.1-6.2,3.6-2.5,7.5c3.6-1.7,7.5-2.4,11.5-2c0,0.3,0,0.7,0,1c-3.1-0.1-6.1,0.4-9,1.5
			c0.6,0.4,0.9,0.9,1,1.5c-0.7,0-1.3,0-2,0c-0.7-0.9-1.7-1.2-3-1c-3.2-4.7-7.1-9.1-11.5-13c-3.8-7.3-6.3-14.9-7.5-23c0-2,0-4,0-6
			C142.9,343.5,150.9,340.1,160.5,340.5z"/>
	</g>
	<g>
		<path class="st73" d="M132.5,347.5c-2.1-4-3.4-8.3-4-13c0.6-0.1,1.1-0.4,1.5-1c1.1,3.7,2.3,7.4,3.5,11
			C133.3,345.6,133,346.6,132.5,347.5z"/>
	</g>
	<g>
		<path class="st74" d="M175.5,332.5c1.9,4,2.9,8.3,3,13c-1.3,0-2.7,0-4,0C174.9,341.2,175.3,336.8,175.5,332.5z"/>
	</g>
	<g>
		<path class="st75" d="M179.5,340.5c1.1,4.5,1.3,9.1,0.5,14c-1.6,1-2.8,2.4-3.5,4c-1.2-4.1-1.9-8.5-2-13c1.3,0,2.7,0,4,0
			c-0.1,1.1,0,2.1,0.5,3C179.5,345.9,179.7,343.2,179.5,340.5z"/>
	</g>
	<g>
		<path class="st76" d="M160.5,340.5c4.3,1,8.6,1.6,13,2c-0.2,1.3,0.1,2.3,1,3c0.1,4.5,0.8,8.9,2,13c1.6,8.5,0.9,16.8-2,25
			c0.1,0.6,0.5,0.9,1,1c-0.7,0.7-1.3,1.3-2,2c0,0.7-0.3,1-1,1c-0.7-0.3-1.3-0.7-2-1c-0.8-0.9-1.8-1.6-3-2c0.4-0.7,1.1-1.2,2-1.5
			c-0.2-8-0.7-16.1-1.5-24.5C166.9,351.8,164.4,345.8,160.5,340.5z"/>
	</g>
	<g>
		<path class="st0" d="M341.5,361.5C342.8,362.2,342.8,362.2,341.5,361.5z"/>
	</g>
	<g>
		<path class="st77" d="M213.5,370.5c2.2-0.3,4.2,0.2,6,1.5c-1,0.2-2,0.3-3,0.5C215,372.4,214,371.7,213.5,370.5z"/>
	</g>
	<g>
		<path class="st78" d="M158.5,376.5c5.1,0.7,4.9,1.7-0.5,3c-0.5-0.3-1-0.7-1.5-1C157.2,377.8,157.9,377.2,158.5,376.5z"/>
	</g>
	<g>
		<path class="st79" d="M220.5,387.5c-4-2.9-8.3-3.6-13-2c-0.9-0.8-1.2-1.8-1-3c0.3-1,1-1.7,2-2c1.8-1.2,3.8-1.9,6-2
			C221.6,378.6,223.6,381.6,220.5,387.5z"/>
	</g>
	<g>
		<path class="st80" d="M167.5,384.5c1.2,0.4,2.2,1.1,3,2c0.2,1.7-0.5,2.7-2,3c-4-0.4-7.9,0.3-11.5,2c-3.7-3.9-2.8-6.4,2.5-7.5
			C162.2,383.6,164.9,383.7,167.5,384.5z"/>
	</g>
	<g>
		<path class="st81" d="M200.5,386.5c-2.3,0-4.7,0-7,0c0,1.7,0,3.3,0,5c-3.6,0.2-6.9,0.2-10,0c1.5-0.8,3.2-1.1,5-1
			c0.4-6.5,1.4-6.5,3,0c1-1.5,1.3-3.2,1-5C195.4,385.2,198.1,385.5,200.5,386.5z"/>
	</g>
	<g>
		<path class="st82" d="M222.5,387.5c0,1.7,0,3.3,0,5c-3.8-0.4-4.5-1.7-2-4C221.2,388.2,221.8,387.8,222.5,387.5z"/>
	</g>
	<g>
		<path class="st83" d="M168.5,390.5c0.1,1-0.2,1.8-1,2.5c-2.3,0.5-4.6,0.7-7,0.5c-0.1-0.6-0.4-1.1-1-1.5
			C162.4,390.9,165.4,390.4,168.5,390.5z"/>
	</g>
	<g>
		<path class="st0" d="M30.5,392.5C31.8,393.2,31.8,393.2,30.5,392.5z"/>
	</g>
	<g>
		<path class="st84" d="M155.5,392.5c1.3-0.2,2.3,0.1,3,1c-1,1.4-2,2.7-3,4C155.5,395.8,155.5,394.2,155.5,392.5z"/>
	</g>
	<g>
		<path class="st85" d="M200.5,386.5c4.3-0.4,6.9,1.5,8,5.5c8.2-1.7,14.3,1.2,18.5,8.5c0.3,8.7,0.8,17.4,1.5,26
			c-0.1,11.2,0.6,22.2,2,33c0,1.3,0,2.7,0,4c0,5.3,0,10.7,0,16c-10,9.7-20,19.3-30,29c0.1-2.2-0.2-4.4-1-6.5c1.3-1.6,2-3.4,2-5.5
			c-1.6-4.5-2.4-9.1-2.5-14c-2.6-1.4-4.4-0.7-5.5,2c-0.3,1-1,1.7-2,2c-1.5,0.5-2.8,1.2-4,2c-1.7,0-3.3,0-5,0c-0.2,1.3,0.1,2.3,1,3
			c0.3,1.7,0.9,3.2,2,4.5c-3.6,1.3-4.8,3.8-3.5,7.5c3.1,0.6,6.3,1.3,9.5,2c1.6,2.8,3.9,4.5,7,5c-10.7,12.1-22.4,23.1-35,33
			c-1.1-21.3-2.4-42.7-4-64c0-0.7,0-1.3,0-2c-0.3-21.4-1.3-42.7-3-64c0.2-3.3,0.3-6.7,0.5-10c1.1-2.3,2-4.6,2.5-7c3.7,0,7.3,0,11,0
			c-0.2-1.6,0.1-3.1,1-4.5c3-2.2,6.4-3.7,10-4.5c-0.3,1.6,0.1,2.9,1,4c0.3,0,0.7,0,1,0c3.1,0.2,6.4,0.2,10,0c0-1.7,0-3.3,0-5
			C195.8,386.5,198.2,386.5,200.5,386.5z"/>
	</g>
	<g>
		<path class="st86" d="M321.5,395.5c0.7-0.1,1.4,0,2,0.5c-1,1.7-2.3,2.3-4,2C320.4,397.3,321,396.5,321.5,395.5z"/>
	</g>
	<g>
		<path class="st87" d="M182.5,391.5c-0.9-1.1-1.3-2.4-1-4c-3.6,0.8-7,2.3-10,4.5c-0.9,1.4-1.2,2.9-1,4.5c-3.7,0-7.3,0-11,0
			c-0.5,2.4-1.4,4.7-2.5,7c-0.2,3.3-0.3,6.7-0.5,10c1.7,21.3,2.7,42.6,3,64c-0.3,0-0.7,0-1,0c-1.4-25.3-2.2-50.7-2.5-76
			c0.8-2.4,2-4.6,3.5-6.5c3-0.3,6-0.7,9-1c1.6-2.1,2.9-4.2,4-6.5c0.7,0,1-0.3,1-1c3-0.7,6-1,9-1
			C182.5,387.5,182.5,389.5,182.5,391.5z"/>
	</g>
	<g>
		<path class="st1" d="M357.5,402.5C358.8,403.2,358.8,403.2,357.5,402.5z"/>
	</g>
	<g>
		<path class="st1" d="M113.5,405.5C114.8,406.2,114.8,406.2,113.5,405.5z"/>
	</g>
	<g>
		<path class="st1" d="M347.5,415.5C348.8,416.2,348.8,416.2,347.5,415.5z"/>
	</g>
	<g>
		<path class="st88" d="M189.5,407.5c1.1-0.1,2.1,0,3,0.5c16.1,16.1,18.3,34,6.5,53.5c-2.2,2.4-4.3,4.7-6.5,7
			c-15.5-12.6-19.7-28.3-12.5-47C182.9,416.6,186.1,411.9,189.5,407.5z"/>
	</g>
	<g>
		<path class="st89" d="M190.5,409.5c6.2,4.6,10,10.6,11.5,18c-6.6-6.3-13.6-6.6-21-1C182.2,419.8,185.3,414.1,190.5,409.5z"/>
	</g>
	<g>
		<path class="st90" d="M201.5,448.5c-6.3,3.7-12.6,3.9-19,0.5c-1.5-1.2-2.7-2.7-3.5-4.5c-2.9-16.1,3.6-22.3,19.5-18.5
			c5.8,4.8,7.6,11,5.5,18.5C202.5,445.5,201.7,446.8,201.5,448.5z"/>
	</g>
	<g>
		<path class="st91" d="M200.5,444.5c-4.4,5.4-9.7,6.4-16,3c-7.4-8-6.4-14.8,3-20.5C200.6,426.6,204.9,432.4,200.5,444.5z"/>
	</g>
	<g>
		<path class="st92" d="M200.5,444.5c-2.2,1.2-4.5,2.2-7,3c-2.8-1.5-4.5-3.8-5-7c-0.7,0.3-1.3,0.7-2,1c-1-3.6-1-6.9,0-10
			c-1.8,2.5-3.3,5.2-4.5,8c0.5-10.4,5.6-13.6,15.5-9.5C201,434.3,202,439.2,200.5,444.5z"/>
	</g>
	<g>
		<path class="st1" d="M280.5,445.5C281.8,446.2,281.8,446.2,280.5,445.5z"/>
	</g>
	<g>
		<path class="st93" d="M170.5,386.5c0.7,0.3,1.3,0.7,2,1c-1.1,2.3-2.4,4.4-4,6.5c-3,0.3-6,0.7-9,1c-1.5,1.9-2.7,4.1-3.5,6.5
			c0.3,25.3,1.1,50.7,2.5,76c0.2,4,0,8-0.5,12c-0.2-4.2-0.7-8.2-1.5-12c-1.7-25.3-2.6-50.6-2.5-76c0.4-1.4,0.9-2.7,1.5-4
			c1-1.3,2-2.6,3-4c0.7,0,1.3,0,2,0c2.4,0.2,4.7,0,7-0.5c0.8-0.7,1.1-1.5,1-2.5c0-0.3,0-0.7,0-1C170,389.2,170.7,388.2,170.5,386.5z
			"/>
	</g>
	<g>
		<path class="st1" d="M381.5,455.5C382.8,456.2,382.8,456.2,381.5,455.5z"/>
	</g>
	<g>
		<path class="st94" d="M228.5,426.5c1.3,10.8,1.9,21.8,2,33C229.1,448.7,228.4,437.7,228.5,426.5z"/>
	</g>
	<g>
		<path class="st95" d="M201.5,448.5c1.9-1.1,2.4-0.4,1.5,2c-2.5,6-6,11.3-10.5,16c-5.7-4.5-9.6-10.2-11.5-17
			c4.9,4.2,10.4,5.1,16.5,2.5C199.3,451.3,200.7,450.2,201.5,448.5z"/>
	</g>
	<g>
		<path class="st0" d="M389.5,467.5C390.8,468.2,390.8,468.2,389.5,467.5z"/>
	</g>
	<g>
		<path class="st96" d="M230.5,479.5c-0.6,25.1,0.5,50.1,3.5,75c0.5,11.3,0.7,22.7,0.5,34c-23,0-46,0-69,0c0.2-13.3,0-26.7-0.5-40
			c-0.2-1.9-0.7-3.5-1.5-5c12.6-9.9,24.3-20.9,35-33c1-0.3,1.7-1,2-2C210.5,498.8,220.5,489.2,230.5,479.5z M193.5,525.5
			c2.7,0.4,4.9,1.8,6.5,4c2.8,2.9,4.4,6.2,5,10c-6.3-3.9-12.6-3.9-19,0C187.2,534.2,189.7,529.5,193.5,525.5z"/>
	</g>
	<g>
		<path class="st97" d="M191.5,486.5c-0.1,1.1,0,2.1,0.5,3c2,1.9,3.9,3.9,5.5,6c-1.9,4.2-4.9,5.6-9,4c1.5-1,2-2.4,1.5-4
			c-1.5-1.5-3-3-4.5-4.5c1.8-0.2,3.4-0.7,5-1.5c-0.8-0.9-1.8-1.2-3-1C188.7,487.7,190,487,191.5,486.5z"/>
	</g>
	<g>
		<path class="st98" d="M156.5,477.5c0.8,3.8,1.3,7.8,1.5,12c0.5-4,0.7-8,0.5-12c0.3,0,0.7,0,1,0c0,0.7,0,1.3,0,2c0,5.3,0,10.7,0,16
			c-1,5.1-1.3,10.5-1,16C157.4,500.3,156.8,489,156.5,477.5z"/>
	</g>
	<g>
		<path class="st1" d="M308.5,499.5C309.8,500.2,309.8,500.2,308.5,499.5z"/>
	</g>
	<g>
		<path class="st99" d="M183.5,491.5c-0.9-0.7-1.2-1.7-1-3c1.7,0,3.3,0,5,0c1.2-0.2,2.2,0.1,3,1c-1.6,0.8-3.2,1.3-5,1.5
			c1.5,1.5,3,3,4.5,4.5c0.5,1.6,0,3-1.5,4c4.1,1.6,7.1,0.2,9-4c-1.6-2.1-3.5-4.1-5.5-6c-0.5-0.9-0.6-1.9-0.5-3c1-0.3,1.7-1,2-2
			c1.1,0,2.1-0.4,3-1c0.8,2.9,1.3,5.9,1.5,9c1,0.9,1.9,1.9,2.5,3c-3.3,3.5-4,7.5-2,12c-3.7,0.2-5.7-1.5-6-5c-3,0-6,0-9,0
			c0.3-2.8,1.6-4.9,4-6.5C186.7,494,185.4,492.5,183.5,491.5z"/>
	</g>
	<g>
		<path class="st1" d="M423.5,502.5c0,0.3,0,0.7,0,1C422.8,503,422.8,502.7,423.5,502.5z"/>
	</g>
	<g>
		<path class="st100" d="M200.5,508.5c-0.3,1-1,1.7-2,2c-3.1-0.5-5.4-2.2-7-5c-3.2-0.7-6.4-1.4-9.5-2c-1.3-3.7-0.1-6.2,3.5-7.5
			c-1.1-1.3-1.7-2.8-2-4.5c1.9,1,3.2,2.5,4,4.5c-2.4,1.6-3.7,3.7-4,6.5c3,0,6,0,9,0c0.3,3.5,2.3,5.2,6,5c-2-4.5-1.3-8.5,2-12
			c-0.6-1.1-1.5-2.1-2.5-3c-0.2-3.1-0.7-6.1-1.5-9c-0.9,0.6-1.9,1-3,1c1.1-2.7,2.9-3.4,5.5-2c0.1,4.9,0.9,9.5,2.5,14
			c0,2.1-0.7,3.9-2,5.5C200.3,504.1,200.6,506.3,200.5,508.5z"/>
	</g>
	<g>
		<path class="st1" d="M100.5,513.5C101.8,514.2,101.8,514.2,100.5,513.5z"/>
	</g>
	<g>
		<path class="st101" d="M230.5,463.5c1,8.5,1.3,17.2,1,26c-0.1,11.2,0.6,22.2,2,33c1.9,22,2.6,44,2,66c-0.3,0-0.7,0-1,0
			c0.2-11.3,0-22.7-0.5-34c-3-24.9-4.1-49.9-3.5-75C230.5,474.2,230.5,468.8,230.5,463.5z"/>
	</g>
	<g>
		<path class="st102" d="M231.5,489.5c1.4,10.8,2,21.8,2,33C232.1,511.7,231.4,500.7,231.5,489.5z"/>
	</g>
	<g>
		<path class="st103" d="M199.5,383.5c1.1,0.8,2.5,1.5,4,2c0.8-0.5,1.1-1.1,1-2c0.7-0.3,1.3-0.7,2-1c-0.2,1.2,0.1,2.2,1,3
			c4.7-1.6,9-0.9,13,2c0,0.3,0,0.7,0,1c-2.5,2.3-1.8,3.6,2,4c4.9,4.1,7.4,9.5,7.5,16c2.9,55.8,5.8,111.7,8.5,167.5
			c-0.1,4.2-0.4,8.4-1,12.5c-0.7,0-1.3,0-2,0c0.6-22-0.1-44-2-66c0-11.2-0.6-22.2-2-33c0.3-8.8,0-17.5-1-26c0-1.3,0-2.7,0-4
			c-0.1-11.2-0.7-22.2-2-33c-0.7-8.6-1.2-17.3-1.5-26c-4.2-7.3-10.3-10.2-18.5-8.5c-1.1-4-3.7-5.9-8-5.5c-2.4-1-5.1-1.3-8-1
			c0.3,1.8,0,3.5-1,5c-1.6-6.5-2.6-6.5-3,0c-1.8-0.1-3.5,0.2-5,1c-0.3,0-0.7,0-1,0c0-2,0-4,0-6c-3,0-6,0.3-9,1c0.7-0.7,1.3-1.3,2-2
			c4-0.7,8-1.3,12-2C191.4,383.4,195.4,383.8,199.5,383.5z"/>
	</g>
	<g>
		<path class="st104" d="M208.5,386.5c12.3,0,12.8,1.7,1.5,5C208.7,390.1,208.2,388.4,208.5,386.5z"/>
	</g>
	<g>
		<path class="st105" d="M203.5,382.5c0.7,0,1,0.3,1,1c0.1,0.9-0.2,1.5-1,2c-1.5-0.5-2.9-1.2-4-2
			C201.1,383.8,202.4,383.4,203.5,382.5z"/>
	</g>
	<g>
		<path class="st1" d="M295.5,526.5C296.8,527.2,296.8,527.2,295.5,526.5z"/>
	</g>
	<g>
		<path class="st106" d="M159.5,495.5c1.4,22,2.4,44,3,66c0.2,1.4,0,2.7-0.5,4c-0.2-3.5-0.7-6.9-1.5-10c-1-14.6-1.7-29.3-2-44
			C158.2,506,158.5,500.6,159.5,495.5z"/>
	</g>
	<g>
		<path class="st1" d="M397.5,542.5C398.8,543.2,398.8,543.2,397.5,542.5z"/>
	</g>
	<g>
		<path class="st107" d="M211.5,545.5c1.2,15.3-2.8,29-12,41c-0.9,0.8-1.9,1-3,0.5c-6.3-6.4-10.6-13.9-13-22.5
			c-1.6-1.2-2.4-2.8-2.5-5c-1.6-14.2,2.6-26.4,12.5-36.5c4.2,1.2,7.7,3.7,10.5,7.5C206.6,535.7,209.1,540.7,211.5,545.5z
			 M193.5,525.5c-3.8,4-6.3,8.7-7.5,14c6.4-3.9,12.7-3.9,19,0c-0.6-3.8-2.2-7.1-5-10C198.4,527.3,196.2,525.9,193.5,525.5z"/>
	</g>
	<g>
		<path class="st108" d="M183.5,564.5c-0.9-2.5-0.9-4.8,0-7c2.3,8,7.6,11.2,16,9.5c2.6-0.8,4.6-2.3,6-4.5c5.5-9,3.5-15.8-6-20.5
			c-8.1-2.1-13.4,0.7-16,8.5c-0.8,0.8-1.3,1.8-1.5,3c-1.1-5.4,0.8-9.5,5.5-12.5c7.6-2.9,14.4-1.7,20.5,3.5
			c6,16.3,0.5,24.5-16.5,24.5C188.7,567.6,186,566.1,183.5,564.5z"/>
	</g>
	<g>
		<path class="st109" d="M205.5,562.5c-1.4,2.2-3.4,3.7-6,4.5c-8.4,1.7-13.7-1.5-16-9.5c0-2.3,0-4.7,0-7c2.6-7.8,7.9-10.6,16-8.5
			C209,546.7,211,553.5,205.5,562.5z"/>
	</g>
	<g>
		<path class="st110" d="M205.5,562.5c-3.2,1.6-6.5,2.6-10,3c-2.1,0-4.1-0.5-6-1.5c-6.1-5.5-6.6-11.7-1.5-18.5
			c7.3-4.5,13.3-3.1,18,4C206.6,553.9,206.5,558.2,205.5,562.5z"/>
	</g>
	<g>
		<path class="st1" d="M314.5,548.5C315.8,549.2,315.8,549.2,314.5,548.5z"/>
	</g>
	<g>
		<path class="st0" d="M323.5,557.5C324.8,558.2,324.8,558.2,323.5,557.5z"/>
	</g>
	<g>
		<path class="st0" d="M109.5,558.5C110.8,559.2,110.8,559.2,109.5,558.5z"/>
	</g>
	<g>
		<path class="st111" d="M159.5,479.5c1.6,21.3,2.9,42.7,4,64c0.8,1.5,1.3,3.1,1.5,5c0.5,13.3,0.7,26.7,0.5,40c-0.7,0-1.3,0-2,0
			c0.3-9.2,0-18.2-1-27c-0.6-22-1.6-44-3-66C159.5,490.2,159.5,484.8,159.5,479.5z"/>
	</g>
	<g>
		<path class="st112" d="M160.5,555.5c0.8,3.1,1.3,6.5,1.5,10c0.5-1.3,0.7-2.6,0.5-4c1,8.8,1.3,17.8,1,27c-0.7,0-1.3,0-2,0
			C161.3,577.5,160.9,566.5,160.5,555.5z"/>
	</g>
	<g>
		<path class="st113" d="M206.5,566.5c0.6,0.2,0.9,0.7,1,1.5c-1.9,6.1-4.9,11.6-9,16.5c-0.5,1-1.2,1.2-2,0.5
			c-4.6-4.8-7.7-10.3-9.5-16.5c4.3,2,8.8,2.5,13.5,1.5C203,569.6,205,568.4,206.5,566.5z"/>
	</g>
	<g>
		<path class="st114" d="M211.5,545.5c3.6,15.8-0.4,29.5-12,41C208.7,574.5,212.7,560.8,211.5,545.5z"/>
	</g>
	<g>
		<path class="st1" d="M268.5,588.5C267.8,587.2,267.8,587.2,268.5,588.5z"/>
	</g>
	<g>
		<path class="st0" d="M345.5,588.5C344.8,587.2,344.8,587.2,345.5,588.5z"/>
	</g>
</g>
<g id="Layer_2">
	<line class="st115" x1="173.7" y1="315.2" x2="183.3" y2="312.2"/>
</g>
</svg>
